<svg width="1150" height="245" viewBox="0 0 1150 245" fill="none" xmlns="http://www.w3.org/2000/svg">
<path fill-rule="evenodd" clip-rule="evenodd" d="M97.3981 20.9766H28.3785C13.1354 20.9766 0.778473 33.3335 0.778473 48.5766V195.777C0.778473 211.02 13.1354 223.377 28.3785 223.377H144.008L143.896 171.002C139.559 172.357 134.615 173.034 129.063 173.034C124.942 173.034 120.722 172.642 116.404 171.857C112.184 170.973 108.014 169.698 103.892 168.029C99.7705 166.263 95.7961 164.055 91.9689 161.406L101.39 144.772C103.941 146.636 106.689 148.305 109.633 149.777C112.675 151.151 115.717 152.23 118.759 153.015C121.801 153.8 124.598 154.193 127.15 154.193C129.701 154.193 132.253 153.849 134.804 153.162C137.454 152.377 139.613 151.102 141.281 149.335C143.047 147.569 143.93 145.115 143.93 141.975C143.93 139.816 143.195 137.853 141.722 136.087C140.349 134.321 138.435 132.702 135.982 131.229C133.627 129.757 131.026 128.482 128.18 127.402C124.843 126.127 121.409 124.654 117.876 122.986C114.343 121.318 111.007 119.306 107.867 116.951C104.824 114.498 102.322 111.505 100.359 107.972C98.4947 104.341 97.5625 99.925 97.5625 94.7239L97.5627 94.5766H97.5549L97.3981 20.9766ZM166.092 223.377L165.923 145.777C166.079 144.532 166.158 143.264 166.158 141.975C166.158 136.774 165.422 132.407 163.95 128.874C162.478 125.243 160.515 122.25 158.062 119.895C155.608 117.442 152.812 115.43 149.671 113.86C146.629 112.192 143.538 110.769 140.398 109.591C136.963 108.315 133.627 106.892 130.388 105.322C127.248 103.752 124.647 101.986 122.587 100.023C120.624 97.9623 119.643 95.6561 119.643 93.1047C119.643 89.3755 120.967 86.5789 123.617 84.7142C126.267 82.8497 129.897 81.9174 134.51 81.9174C138.239 81.9174 142.213 82.6534 146.433 84.1255C150.751 85.5974 154.97 87.4621 159.092 89.7192L167.188 73.38C162.87 70.5339 157.964 68.0808 152.468 66.02C147.071 63.9592 140.005 62.9287 131.271 62.9287C127.06 63.1144 123.161 63.7889 119.575 64.9519L119.479 20.9766H341.179C356.422 20.9766 368.779 33.3335 368.779 48.5766V195.777C368.779 211.02 356.422 223.377 341.179 223.377H181.737L166.098 244.536V223.377H166.092ZM215.102 73.6374L239.875 134.707L263.089 73.6374H288.407L238.948 186.981L189.489 73.6374H215.102Z" fill="white"/>
<path fill-rule="evenodd" clip-rule="evenodd" d="M98.7585 21.8968V0.736816L83.7986 20.9768H28.3785C13.1354 20.9768 0.778473 33.3337 0.778473 48.5768V195.777C0.778473 211.02 13.1354 223.377 28.3785 223.377H144.229L143.881 171.024L141.633 171.636C141.633 171.636 137.216 172.951 129.063 173.034C124.942 173.034 120.722 172.642 116.404 171.857C112.184 170.974 108.014 169.698 103.892 168.03C99.7705 166.263 95.7961 164.055 91.9689 161.406L101.39 144.772C103.941 146.637 106.689 148.305 109.633 149.777C112.675 151.151 115.717 152.23 118.759 153.015C121.801 153.801 124.598 154.193 127.15 154.193C129.701 154.193 132.253 153.849 134.804 153.163C137.454 152.377 139.613 151.102 141.281 149.335C143.047 147.569 143.93 145.116 143.93 141.975C143.93 139.816 143.195 137.854 141.722 136.087C140.349 134.321 138.435 132.702 135.982 131.23C133.627 129.758 131.026 128.482 128.18 127.403C124.844 126.127 121.409 124.655 117.876 122.987C114.343 121.318 111.007 119.307 107.867 116.951C104.824 114.498 102.322 111.505 100.359 107.972C98.4947 104.341 97.5625 99.9252 97.5625 94.7242C97.5625 91.3409 97.9612 88.1997 98.7585 85.3007L98.7585 21.8968Z" fill="white"/>
<path d="M509.866 60.1966C505.106 57.59 500.233 55.4366 495.246 53.7366C490.373 52.0366 485.783 51.1866 481.476 51.1866C476.15 51.1866 471.956 52.2633 468.896 54.4166C465.836 56.57 464.306 59.8 464.306 64.1066C464.306 67.0533 465.44 69.7166 467.706 72.0966C470.086 74.3633 473.09 76.4033 476.716 78.2166C480.456 80.03 484.31 81.6733 488.276 83.1466C491.903 84.5066 495.473 86.15 498.986 88.0766C502.613 89.89 505.843 92.2133 508.676 95.0466C511.51 97.7666 513.776 101.223 515.476 105.417C517.176 109.497 518.026 114.54 518.026 120.547C518.026 126.893 516.383 132.787 513.096 138.227C509.81 143.667 504.993 148.087 498.646 151.487C492.3 154.773 484.48 156.417 475.186 156.417C470.426 156.417 465.553 155.963 460.566 155.057C455.693 154.037 450.876 152.563 446.116 150.637C441.356 148.597 436.766 146.047 432.346 142.987L443.226 123.777C446.173 125.93 449.346 127.857 452.746 129.557C456.26 131.143 459.773 132.39 463.286 133.297C466.8 134.203 470.03 134.657 472.976 134.657C475.923 134.657 478.87 134.26 481.816 133.467C484.876 132.56 487.37 131.087 489.296 129.047C491.336 127.007 492.356 124.173 492.356 120.547C492.356 118.053 491.506 115.787 489.806 113.747C488.22 111.707 486.01 109.837 483.176 108.137C480.456 106.437 477.453 104.963 474.166 103.717C470.313 102.243 466.346 100.543 462.266 98.6166C458.186 96.69 454.333 94.3666 450.706 91.6466C447.193 88.8133 444.303 85.3566 442.036 81.2766C439.883 77.0833 438.806 71.9833 438.806 65.9766C438.806 58.7233 440.393 52.4333 443.566 47.1066C446.853 41.78 451.443 37.5866 457.336 34.5266C463.23 31.3533 470.03 29.5966 477.736 29.2566C487.823 29.2566 495.983 30.4466 502.216 32.8266C508.563 35.2066 514.23 38.04 519.216 41.3266L509.866 60.1966ZM569.538 157.097C562.624 157.097 556.334 155.737 550.668 153.017C545.114 150.183 540.694 145.877 537.408 140.097C534.121 134.317 532.478 126.95 532.478 117.997C532.478 109.61 534.178 102.357 537.578 96.2366C540.978 90.1166 545.454 85.4133 551.008 82.1266C556.561 78.7266 562.454 77.0266 568.688 77.0266C576.054 77.0266 581.608 78.2733 585.348 80.7666C589.201 83.1466 592.374 85.81 594.868 88.7566L593.848 91.6466L596.058 80.7666H618.158V155.057H594.358V138.907L596.228 144.007C596.001 144.007 595.321 144.687 594.188 146.047C593.054 147.293 591.354 148.823 589.088 150.637C586.934 152.337 584.214 153.81 580.928 155.057C577.754 156.417 573.958 157.097 569.538 157.097ZM576.338 137.717C579.171 137.717 581.721 137.32 583.988 136.527C586.254 135.62 588.238 134.373 589.938 132.787C591.638 131.087 593.111 128.99 594.358 126.497V108.307C593.451 105.813 592.091 103.717 590.278 102.017C588.464 100.203 586.311 98.8433 583.818 97.9366C581.324 96.9166 578.548 96.4066 575.488 96.4066C572.088 96.4066 568.914 97.3133 565.968 99.1266C563.134 100.827 560.868 103.207 559.168 106.267C557.468 109.327 556.618 112.84 556.618 116.807C556.618 120.773 557.524 124.343 559.338 127.517C561.151 130.69 563.531 133.183 566.478 134.997C569.538 136.81 572.824 137.717 576.338 137.717ZM664.271 80.7666L666.141 94.0266L665.801 92.8366C668.408 88.19 672.091 84.45 676.851 81.6166C681.611 78.67 687.448 77.1966 694.361 77.1966C701.388 77.1966 707.225 79.2933 711.871 83.4866C716.631 87.5666 719.068 92.8933 719.181 99.4666V155.057H695.381V108.307C695.268 105.02 694.361 102.413 692.661 100.487C691.075 98.4466 688.355 97.4266 684.501 97.4266C680.875 97.4266 677.701 98.6166 674.981 100.997C672.261 103.377 670.165 106.607 668.691 110.687C667.218 114.767 666.481 119.47 666.481 124.797V155.057H642.681V80.7666H664.271Z" fill="white"/>
<path d="M740.056 155.057V29.9366H777.456C790.036 29.9366 800.746 31.8066 809.586 35.5466C818.426 39.2866 825.51 44.2733 830.836 50.5066C836.276 56.74 840.243 63.71 842.736 71.4166C845.23 79.1233 846.476 86.8866 846.476 94.7066C846.476 104 844.776 112.387 841.376 119.867C838.09 127.233 833.556 133.58 827.776 138.907C821.996 144.12 815.31 148.143 807.716 150.977C800.123 153.697 792.076 155.057 783.576 155.057H740.056ZM764.706 131.257H779.326C785.56 131.257 791.226 130.463 796.326 128.877C801.426 127.177 805.79 124.74 809.416 121.567C813.156 118.393 815.99 114.427 817.916 109.667C819.956 104.793 820.976 99.24 820.976 93.0066C820.976 84.8466 819.616 78.2166 816.896 73.1166C814.29 67.9033 811.003 63.88 807.036 61.0466C803.183 58.2133 799.216 56.2866 795.136 55.2666C791.056 54.1333 787.6 53.5666 784.766 53.5666H764.706V131.257ZM903.849 157.097C894.782 157.097 887.075 155.397 880.729 151.997C874.495 148.597 869.735 143.893 866.449 137.887C863.162 131.88 861.519 124.967 861.519 117.147C861.519 109.667 863.445 102.923 867.299 96.9166C871.152 90.91 876.309 86.15 882.769 82.6366C889.229 79.01 896.425 77.1966 904.359 77.1966C915.012 77.1966 923.739 80.3133 930.539 86.5466C937.452 92.6666 941.929 101.563 943.969 113.237L886.169 131.597L880.899 118.677L922.719 104.567L917.789 106.777C916.882 103.83 915.239 101.28 912.859 99.1266C910.592 96.86 907.135 95.7266 902.489 95.7266C898.975 95.7266 895.859 96.5766 893.139 98.2766C890.532 99.8633 888.492 102.187 887.019 105.247C885.659 108.193 884.979 111.707 884.979 115.787C884.979 120.433 885.829 124.343 887.529 127.517C889.229 130.577 891.552 132.9 894.499 134.487C897.445 136.073 900.732 136.867 904.359 136.867C906.965 136.867 909.459 136.413 911.839 135.507C914.332 134.6 916.769 133.41 919.149 131.937L929.689 149.617C925.722 151.883 921.415 153.697 916.769 155.057C912.235 156.417 907.929 157.097 903.849 157.097ZM997.813 157.097C988.747 157.097 981.04 155.397 974.693 151.997C968.46 148.597 963.7 143.893 960.413 137.887C957.127 131.88 955.483 124.967 955.483 117.147C955.483 109.667 957.41 102.923 961.263 96.9166C965.117 90.91 970.273 86.15 976.733 82.6366C983.193 79.01 990.39 77.1966 998.323 77.1966C1008.98 77.1966 1017.7 80.3133 1024.5 86.5466C1031.42 92.6666 1035.89 101.563 1037.93 113.237L980.133 131.597L974.863 118.677L1016.68 104.567L1011.75 106.777C1010.85 103.83 1009.2 101.28 1006.82 99.1266C1004.56 96.86 1001.1 95.7266 996.453 95.7266C992.94 95.7266 989.823 96.5766 987.103 98.2766C984.497 99.8633 982.457 102.187 980.983 105.247C979.623 108.193 978.943 111.707 978.943 115.787C978.943 120.433 979.793 124.343 981.493 127.517C983.193 130.577 985.517 132.9 988.463 134.487C991.41 136.073 994.697 136.867 998.323 136.867C1000.93 136.867 1003.42 136.413 1005.8 135.507C1008.3 134.6 1010.73 133.41 1013.11 131.937L1023.65 149.617C1019.69 151.883 1015.38 153.697 1010.73 155.057C1006.2 156.417 1001.89 157.097 997.813 157.097ZM1101.81 157.097C1097.39 157.097 1093.02 156.303 1088.72 154.717C1084.52 153.017 1081.01 150.637 1078.18 147.577L1078.86 140.607V190.757H1055.23V79.0666H1075.63L1079.03 93.5166L1077.16 88.4166C1081.01 85.13 1085.32 82.41 1090.08 80.2566C1094.84 78.1033 1100.33 77.0266 1106.57 77.0266C1113.48 77.0266 1119.66 78.67 1125.1 81.9566C1130.54 85.13 1134.79 89.7766 1137.85 95.8966C1141.02 101.903 1142.61 109.157 1142.61 117.657C1142.61 126.043 1140.85 133.183 1137.34 139.077C1133.82 144.97 1129.01 149.447 1122.89 152.507C1116.77 155.567 1109.74 157.097 1101.81 157.097ZM1097.05 138.397C1100.9 138.397 1104.41 137.547 1107.59 135.847C1110.87 134.147 1113.48 131.767 1115.41 128.707C1117.45 125.533 1118.47 121.963 1118.47 117.997C1118.47 113.803 1117.56 110.177 1115.75 107.117C1114.05 103.943 1111.67 101.507 1108.61 99.8066C1105.66 97.9933 1102.37 97.0866 1098.75 97.0866C1095.57 97.0866 1092.74 97.54 1090.25 98.4466C1087.87 99.24 1085.71 100.487 1083.79 102.187C1081.97 103.773 1080.39 105.813 1079.03 108.307V126.497C1079.93 128.877 1081.24 130.973 1082.94 132.787C1084.64 134.6 1086.68 136.017 1089.06 137.037C1091.55 137.943 1094.21 138.397 1097.05 138.397Z" fill="white"/>
<path d="M621.006 183.856L611.256 218.756H603.006L596.456 193.906L589.606 218.756L581.406 218.806L572.006 183.856H579.506L585.656 210.956L592.756 183.856H600.556L607.256 210.806L613.456 183.856H621.006ZM655.327 204.306C655.327 205.306 655.26 206.206 655.127 207.006H634.877C635.044 209.006 635.744 210.573 636.977 211.706C638.21 212.84 639.727 213.406 641.527 213.406C644.127 213.406 645.977 212.29 647.077 210.056H654.627C653.827 212.723 652.294 214.923 650.027 216.656C647.76 218.356 644.977 219.206 641.677 219.206C639.01 219.206 636.61 218.623 634.477 217.456C632.377 216.256 630.727 214.573 629.527 212.406C628.36 210.24 627.777 207.74 627.777 204.906C627.777 202.04 628.36 199.523 629.527 197.356C630.694 195.19 632.327 193.523 634.427 192.356C636.527 191.19 638.944 190.606 641.677 190.606C644.31 190.606 646.66 191.173 648.727 192.306C650.827 193.44 652.444 195.056 653.577 197.156C654.744 199.223 655.327 201.606 655.327 204.306ZM648.077 202.306C648.044 200.506 647.394 199.073 646.127 198.006C644.86 196.906 643.31 196.356 641.477 196.356C639.744 196.356 638.277 196.89 637.077 197.956C635.91 198.99 635.194 200.44 634.927 202.306H648.077ZM671.436 195.106C672.336 193.773 673.57 192.69 675.136 191.856C676.736 191.023 678.553 190.606 680.586 190.606C682.953 190.606 685.086 191.19 686.986 192.356C688.92 193.523 690.436 195.19 691.536 197.356C692.67 199.49 693.236 201.973 693.236 204.806C693.236 207.64 692.67 210.156 691.536 212.356C690.436 214.523 688.92 216.206 686.986 217.406C685.086 218.606 682.953 219.206 680.586 219.206C678.52 219.206 676.703 218.806 675.136 218.006C673.603 217.173 672.37 216.106 671.436 214.806V218.756H664.436V181.756H671.436V195.106ZM686.086 204.806C686.086 203.14 685.736 201.706 685.036 200.506C684.37 199.273 683.47 198.34 682.336 197.706C681.236 197.073 680.036 196.756 678.736 196.756C677.47 196.756 676.27 197.09 675.136 197.756C674.036 198.39 673.136 199.323 672.436 200.556C671.77 201.79 671.436 203.24 671.436 204.906C671.436 206.573 671.77 208.023 672.436 209.256C673.136 210.49 674.036 211.44 675.136 212.106C676.27 212.74 677.47 213.056 678.736 213.056C680.036 213.056 681.236 212.723 682.336 212.056C683.47 211.39 684.37 210.44 685.036 209.206C685.736 207.973 686.086 206.506 686.086 204.806ZM730.437 183.856C734.104 183.856 737.32 184.573 740.087 186.006C742.887 187.44 745.037 189.49 746.537 192.156C748.07 194.79 748.837 197.856 748.837 201.356C748.837 204.856 748.07 207.923 746.537 210.556C745.037 213.156 742.887 215.173 740.087 216.606C737.32 218.04 734.104 218.756 730.437 218.756H718.237V183.856H730.437ZM730.187 212.806C733.854 212.806 736.687 211.806 738.687 209.806C740.687 207.806 741.687 204.99 741.687 201.356C741.687 197.723 740.687 194.89 738.687 192.856C736.687 190.79 733.854 189.756 730.187 189.756H725.237V212.806H730.187ZM783.827 204.306C783.827 205.306 783.76 206.206 783.627 207.006H763.377C763.544 209.006 764.244 210.573 765.477 211.706C766.71 212.84 768.227 213.406 770.027 213.406C772.627 213.406 774.477 212.29 775.577 210.056H783.127C782.327 212.723 780.794 214.923 778.527 216.656C776.26 218.356 773.477 219.206 770.177 219.206C767.51 219.206 765.11 218.623 762.977 217.456C760.877 216.256 759.227 214.573 758.027 212.406C756.86 210.24 756.277 207.74 756.277 204.906C756.277 202.04 756.86 199.523 758.027 197.356C759.194 195.19 760.827 193.523 762.927 192.356C765.027 191.19 767.444 190.606 770.177 190.606C772.81 190.606 775.16 191.173 777.227 192.306C779.327 193.44 780.944 195.056 782.077 197.156C783.244 199.223 783.827 201.606 783.827 204.306ZM776.577 202.306C776.544 200.506 775.894 199.073 774.627 198.006C773.36 196.906 771.81 196.356 769.977 196.356C768.244 196.356 766.777 196.89 765.577 197.956C764.41 198.99 763.694 200.44 763.427 202.306H776.577ZM804.486 212.306L811.486 191.056H818.936L808.686 218.756H800.186L789.986 191.056H797.486L804.486 212.306ZM852.618 204.306C852.618 205.306 852.551 206.206 852.418 207.006H832.168C832.335 209.006 833.035 210.573 834.268 211.706C835.501 212.84 837.018 213.406 838.818 213.406C841.418 213.406 843.268 212.29 844.368 210.056H851.918C851.118 212.723 849.585 214.923 847.318 216.656C845.051 218.356 842.268 219.206 838.968 219.206C836.301 219.206 833.901 218.623 831.768 217.456C829.668 216.256 828.018 214.573 826.818 212.406C825.651 210.24 825.068 207.74 825.068 204.906C825.068 202.04 825.651 199.523 826.818 197.356C827.985 195.19 829.618 193.523 831.718 192.356C833.818 191.19 836.235 190.606 838.968 190.606C841.601 190.606 843.951 191.173 846.018 192.306C848.118 193.44 849.735 195.056 850.868 197.156C852.035 199.223 852.618 201.606 852.618 204.306ZM845.368 202.306C845.335 200.506 844.685 199.073 843.418 198.006C842.151 196.906 840.601 196.356 838.768 196.356C837.035 196.356 835.568 196.89 834.368 197.956C833.201 198.99 832.485 200.44 832.218 202.306H845.368ZM868.727 181.756V218.756H861.727V181.756H868.727ZM891.943 219.206C889.277 219.206 886.877 218.623 884.743 217.456C882.61 216.256 880.927 214.573 879.693 212.406C878.493 210.24 877.893 207.74 877.893 204.906C877.893 202.073 878.51 199.573 879.743 197.406C881.01 195.24 882.727 193.573 884.893 192.406C887.06 191.206 889.477 190.606 892.143 190.606C894.81 190.606 897.227 191.206 899.393 192.406C901.56 193.573 903.26 195.24 904.493 197.406C905.76 199.573 906.393 202.073 906.393 204.906C906.393 207.74 905.743 210.24 904.443 212.406C903.177 214.573 901.443 216.256 899.243 217.456C897.077 218.623 894.643 219.206 891.943 219.206ZM891.943 213.106C893.21 213.106 894.393 212.806 895.493 212.206C896.627 211.573 897.527 210.64 898.193 209.406C898.86 208.173 899.193 206.673 899.193 204.906C899.193 202.273 898.493 200.256 897.093 198.856C895.727 197.423 894.043 196.706 892.043 196.706C890.043 196.706 888.36 197.423 886.993 198.856C885.66 200.256 884.993 202.273 884.993 204.906C884.993 207.54 885.643 209.573 886.943 211.006C888.277 212.406 889.943 213.106 891.943 213.106ZM922.528 195.056C923.428 193.79 924.661 192.74 926.228 191.906C927.828 191.04 929.645 190.606 931.678 190.606C934.045 190.606 936.178 191.19 938.078 192.356C940.011 193.523 941.528 195.19 942.628 197.356C943.761 199.49 944.328 201.973 944.328 204.806C944.328 207.64 943.761 210.156 942.628 212.356C941.528 214.523 940.011 216.206 938.078 217.406C936.178 218.606 934.045 219.206 931.678 219.206C929.645 219.206 927.845 218.79 926.278 217.956C924.745 217.123 923.495 216.073 922.528 214.806V231.956H915.528V191.056H922.528V195.056ZM937.178 204.806C937.178 203.14 936.828 201.706 936.128 200.506C935.461 199.273 934.561 198.34 933.428 197.706C932.328 197.073 931.128 196.756 929.828 196.756C928.561 196.756 927.361 197.09 926.228 197.756C925.128 198.39 924.228 199.323 923.528 200.556C922.861 201.79 922.528 203.24 922.528 204.906C922.528 206.573 922.861 208.023 923.528 209.256C924.228 210.49 925.128 211.44 926.228 212.106C927.361 212.74 928.561 213.056 929.828 213.056C931.128 213.056 932.328 212.723 933.428 212.056C934.561 211.39 935.461 210.44 936.128 209.206C936.828 207.973 937.178 206.506 937.178 204.806ZM979.165 204.306C979.165 205.306 979.098 206.206 978.965 207.006H958.715C958.881 209.006 959.581 210.573 960.815 211.706C962.048 212.84 963.565 213.406 965.365 213.406C967.965 213.406 969.815 212.29 970.915 210.056H978.465C977.665 212.723 976.131 214.923 973.865 216.656C971.598 218.356 968.815 219.206 965.515 219.206C962.848 219.206 960.448 218.623 958.315 217.456C956.215 216.256 954.565 214.573 953.365 212.406C952.198 210.24 951.615 207.74 951.615 204.906C951.615 202.04 952.198 199.523 953.365 197.356C954.531 195.19 956.165 193.523 958.265 192.356C960.365 191.19 962.781 190.606 965.515 190.606C968.148 190.606 970.498 191.173 972.565 192.306C974.665 193.44 976.281 195.056 977.415 197.156C978.581 199.223 979.165 201.606 979.165 204.306ZM971.915 202.306C971.881 200.506 971.231 199.073 969.965 198.006C968.698 196.906 967.148 196.356 965.315 196.356C963.581 196.356 962.115 196.89 960.915 197.956C959.748 198.99 959.031 200.44 958.765 202.306H971.915ZM995.274 195.356C996.174 193.89 997.341 192.74 998.774 191.906C1000.24 191.073 1001.91 190.656 1003.77 190.656V198.006H1001.92C999.724 198.006 998.057 198.523 996.924 199.556C995.824 200.59 995.274 202.39 995.274 204.956V218.756H988.274V191.056H995.274V195.356Z" fill="white"/>
</svg>
