<svg width="1247" height="245" viewBox="0 0 1247 245" fill="none" xmlns="http://www.w3.org/2000/svg">
<path fill-rule="evenodd" clip-rule="evenodd" d="M97.3981 20.8145H28.3785C13.1354 20.8145 0.778503 33.1714 0.778503 48.4145V195.615C0.778503 210.858 13.1354 223.215 28.3785 223.215H144.008L143.896 170.84C139.559 172.195 134.615 172.872 129.063 172.872C124.942 172.872 120.722 172.48 116.404 171.694C112.184 170.811 108.014 169.536 103.892 167.867C99.7705 166.101 95.7961 163.893 91.9689 161.243L101.39 144.61C103.941 146.474 106.689 148.143 109.633 149.614C112.675 150.988 115.717 152.068 118.759 152.853C121.801 153.638 124.598 154.031 127.15 154.031C129.701 154.031 132.253 153.687 134.804 153C137.454 152.215 139.613 150.939 141.281 149.173C143.047 147.407 143.93 144.953 143.93 141.813C143.93 139.654 143.195 137.691 141.722 135.925C140.349 134.159 138.435 132.539 135.982 131.067C133.627 129.595 131.026 128.32 128.18 127.24C124.844 125.964 121.409 124.492 117.876 122.824C114.343 121.156 111.007 119.144 107.867 116.789C104.824 114.336 102.322 111.343 100.359 107.81C98.4948 104.179 97.5625 99.7629 97.5625 94.5618L97.5628 94.4145H97.5549L97.3981 20.8145ZM166.092 223.215L165.923 145.615C166.079 144.369 166.158 143.102 166.158 141.813C166.158 136.612 165.422 132.245 163.95 128.712C162.478 125.081 160.515 122.088 158.062 119.733C155.608 117.28 152.812 115.268 149.671 113.698C146.629 112.029 143.538 110.607 140.398 109.429C136.963 108.153 133.627 106.73 130.388 105.16C127.248 103.59 124.647 101.824 122.587 99.861C120.624 97.8002 119.643 95.4939 119.643 92.9426C119.643 89.2134 120.967 86.4168 123.617 84.5521C126.267 82.6876 129.897 81.7553 134.51 81.7553C138.239 81.7553 142.213 82.4913 146.433 83.9634C150.751 85.4353 154.971 87.3 159.092 89.5571L167.188 73.2179C162.87 70.3718 157.964 67.9186 152.468 65.8579C147.071 63.7971 140.005 62.7666 131.271 62.7666C127.06 62.9523 123.161 63.6268 119.575 64.7898L119.479 20.8145H341.179C356.422 20.8145 368.779 33.1714 368.779 48.4145V195.615C368.779 210.858 356.422 223.215 341.179 223.215H181.737L166.098 244.374V223.215H166.092ZM215.102 73.4753L239.875 134.545L263.089 73.4753H288.407L238.948 186.819L189.489 73.4753H215.102Z" fill="white"/>
<path fill-rule="evenodd" clip-rule="evenodd" d="M98.7586 21.7346V0.574618L83.7986 20.8146H28.3785C13.1354 20.8146 0.778503 33.1715 0.778503 48.4146V195.615C0.778503 210.858 13.1354 223.215 28.3785 223.215H144.229L143.881 170.861L141.633 171.474C141.633 171.474 137.216 172.789 129.063 172.872C124.942 172.872 120.722 172.48 116.404 171.695C112.184 170.811 108.014 169.536 103.892 167.868C99.7705 166.101 95.7961 163.893 91.9689 161.244L101.39 144.61C103.941 146.474 106.689 148.143 109.633 149.615C112.675 150.989 115.717 152.068 118.759 152.853C121.801 153.638 124.598 154.031 127.15 154.031C129.701 154.031 132.253 153.687 134.804 153C137.454 152.215 139.613 150.94 141.281 149.173C143.047 147.407 143.931 144.953 143.931 141.813C143.931 139.654 143.195 137.691 141.722 135.925C140.349 134.159 138.435 132.54 135.982 131.068C133.627 129.595 131.026 128.32 128.18 127.24C124.844 125.965 121.409 124.493 117.876 122.824C114.343 121.156 111.007 119.144 107.867 116.789C104.824 114.336 102.322 111.343 100.359 107.81C98.4948 104.179 97.5625 99.763 97.5625 94.562C97.5625 91.1787 97.9612 88.0375 98.7585 85.1385L98.7586 21.7346Z" fill="white"/>
<path d="M508.89 51.2306C504.186 48.6546 499.37 46.5266 494.442 44.8466C489.626 43.1666 485.09 42.3266 480.834 42.3266C475.57 42.3266 471.426 43.3906 468.402 45.5186C465.378 47.6466 463.866 50.8386 463.866 55.0946C463.866 58.0066 464.986 60.6386 467.226 62.9906C469.578 65.2306 472.546 67.2466 476.13 69.0386C479.826 70.8306 483.634 72.4546 487.554 73.9106C491.138 75.2546 494.666 76.8786 498.138 78.7826C501.722 80.5746 504.914 82.8706 507.714 85.6706C510.514 88.3586 512.754 91.7746 514.434 95.9186C516.114 99.9506 516.954 104.935 516.954 110.871C516.954 117.143 515.33 122.967 512.082 128.343C508.834 133.719 504.074 138.087 497.802 141.447C491.53 144.695 483.802 146.319 474.618 146.319C469.914 146.319 465.098 145.871 460.17 144.975C455.354 143.967 450.594 142.511 445.89 140.607C441.186 138.591 436.65 136.071 432.282 133.047L443.034 114.063C445.946 116.191 449.082 118.095 452.442 119.775C455.914 121.343 459.386 122.575 462.858 123.471C466.33 124.367 469.522 124.815 472.434 124.815C475.346 124.815 478.258 124.423 481.17 123.639C484.194 122.743 486.658 121.287 488.562 119.271C490.578 117.255 491.586 114.455 491.586 110.871C491.586 108.407 490.746 106.167 489.066 104.151C487.498 102.135 485.314 100.287 482.514 98.6066C479.826 96.9266 476.858 95.4706 473.61 94.2386C469.802 92.7826 465.882 91.1026 461.85 89.1986C457.818 87.2946 454.01 84.9986 450.426 82.3106C446.954 79.5106 444.098 76.0946 441.858 72.0626C439.73 67.9186 438.666 62.8786 438.666 56.9426C438.666 49.7746 440.234 43.5586 443.37 38.2946C446.618 33.0306 451.154 28.8866 456.978 25.8626C462.802 22.7266 469.522 20.9906 477.138 20.6546C487.106 20.6546 495.17 21.8306 501.33 24.1826C507.602 26.5346 513.202 29.3346 518.13 32.5826L508.89 51.2306ZM526.868 144.975L582.644 16.4546H583.988L639.764 144.975H611.54L575.924 54.5906L593.564 42.4946L550.892 144.975H526.868ZM565.004 100.287H602.132L610.7 120.783H557.444L565.004 100.287ZM768.5 150.015L674.756 65.3426L681.98 69.3746L682.484 144.975H657.788V16.4546H658.796L750.524 100.791L745.148 98.4386L744.644 21.3266H769.172V150.015H768.5Z" fill="white"/>
<path d="M801.866 144.975V21.3266H838.826C851.258 21.3266 861.842 23.1746 870.578 26.8706C879.314 30.5666 886.314 35.4946 891.578 41.6546C896.954 47.8146 900.874 54.7026 903.338 62.3186C905.802 69.9346 907.034 77.6066 907.034 85.3346C907.034 94.5186 905.354 102.807 901.994 110.199C898.746 117.479 894.266 123.751 888.554 129.015C882.842 134.167 876.234 138.143 868.73 140.943C861.226 143.631 853.274 144.975 844.874 144.975H801.866ZM826.226 121.455H840.674C846.834 121.455 852.434 120.671 857.474 119.103C862.514 117.423 866.826 115.015 870.41 111.879C874.106 108.743 876.906 104.823 878.81 100.119C880.826 95.3026 881.834 89.8146 881.834 83.6546C881.834 75.5906 880.49 69.0386 877.802 63.9986C875.226 58.8466 871.978 54.8706 868.058 52.0706C864.25 49.2706 860.33 47.3666 856.298 46.3586C852.266 45.2386 848.85 44.6786 846.05 44.6786H826.226V121.455ZM931.476 21.3266H1015.81V44.8466H955.836V71.2226H1008.92V94.7426H955.836V121.455H1018.16V144.975H931.476V21.3266ZM1043.37 21.3266H1127.7V44.8466H1067.73V71.2226H1120.81V94.7426H1067.73V121.455H1130.05V144.975H1043.37V21.3266ZM1192.72 21.3266C1202.91 21.3266 1211.54 23.0626 1218.59 26.5346C1225.65 29.8946 1231.02 34.7106 1234.72 40.9826C1238.42 47.1426 1240.26 54.4786 1240.26 62.9906C1240.26 68.0306 1239.48 73.1266 1237.91 78.2786C1236.46 83.3186 1234.05 87.9106 1230.69 92.0546C1227.44 96.1986 1223.02 99.5586 1217.42 102.135C1211.93 104.599 1205.15 105.831 1197.09 105.831H1179.62V144.975H1155.26V21.3266H1192.72ZM1196.92 82.1426C1200.62 82.1426 1203.7 81.5266 1206.16 80.2946C1208.62 78.9506 1210.53 77.3266 1211.87 75.4226C1213.33 73.4066 1214.34 71.3346 1214.9 69.2066C1215.57 67.0786 1215.9 65.2306 1215.9 63.6626C1215.9 62.4306 1215.68 60.8066 1215.23 58.7906C1214.9 56.6626 1214.11 54.5346 1212.88 52.4066C1211.65 50.2786 1209.74 48.4866 1207.17 47.0306C1204.7 45.5746 1201.34 44.8466 1197.09 44.8466H1179.62V82.1426H1196.92Z" fill="white"/>
<path d="M536.006 185.075L526.256 219.975H518.006L511.456 195.125L504.606 219.975L496.406 220.025L487.006 185.075H494.506L500.656 212.175L507.756 185.075H515.556L522.256 212.025L528.456 185.075H536.006ZM570.327 205.525C570.327 206.525 570.26 207.425 570.127 208.225H549.877C550.044 210.225 550.744 211.791 551.977 212.925C553.21 214.058 554.727 214.625 556.527 214.625C559.127 214.625 560.977 213.508 562.077 211.275H569.627C568.827 213.941 567.294 216.141 565.027 217.875C562.76 219.575 559.977 220.425 556.677 220.425C554.01 220.425 551.61 219.841 549.477 218.675C547.377 217.475 545.727 215.791 544.527 213.625C543.36 211.458 542.777 208.958 542.777 206.125C542.777 203.258 543.36 200.741 544.527 198.575C545.694 196.408 547.327 194.741 549.427 193.575C551.527 192.408 553.944 191.825 556.677 191.825C559.31 191.825 561.66 192.391 563.727 193.525C565.827 194.658 567.444 196.275 568.577 198.375C569.744 200.441 570.327 202.825 570.327 205.525ZM563.077 203.525C563.044 201.725 562.394 200.291 561.127 199.225C559.86 198.125 558.31 197.575 556.477 197.575C554.744 197.575 553.277 198.108 552.077 199.175C550.91 200.208 550.194 201.658 549.927 203.525H563.077ZM586.436 196.325C587.336 194.991 588.57 193.908 590.136 193.075C591.736 192.241 593.553 191.825 595.586 191.825C597.953 191.825 600.086 192.408 601.986 193.575C603.92 194.741 605.436 196.408 606.536 198.575C607.67 200.708 608.236 203.191 608.236 206.025C608.236 208.858 607.67 211.375 606.536 213.575C605.436 215.741 603.92 217.425 601.986 218.625C600.086 219.825 597.953 220.425 595.586 220.425C593.52 220.425 591.703 220.025 590.136 219.225C588.603 218.391 587.37 217.325 586.436 216.025V219.975H579.436V182.975H586.436V196.325ZM601.086 206.025C601.086 204.358 600.736 202.925 600.036 201.725C599.37 200.491 598.47 199.558 597.336 198.925C596.236 198.291 595.036 197.975 593.736 197.975C592.47 197.975 591.27 198.308 590.136 198.975C589.036 199.608 588.136 200.541 587.436 201.775C586.77 203.008 586.436 204.458 586.436 206.125C586.436 207.791 586.77 209.241 587.436 210.475C588.136 211.708 589.036 212.658 590.136 213.325C591.27 213.958 592.47 214.275 593.736 214.275C595.036 214.275 596.236 213.941 597.336 213.275C598.47 212.608 599.37 211.658 600.036 210.425C600.736 209.191 601.086 207.725 601.086 206.025ZM645.437 185.075C649.104 185.075 652.32 185.791 655.087 187.225C657.887 188.658 660.037 190.708 661.537 193.375C663.07 196.008 663.837 199.075 663.837 202.575C663.837 206.075 663.07 209.141 661.537 211.775C660.037 214.375 657.887 216.391 655.087 217.825C652.32 219.258 649.104 219.975 645.437 219.975H633.237V185.075H645.437ZM645.187 214.025C648.854 214.025 651.687 213.025 653.687 211.025C655.687 209.025 656.687 206.208 656.687 202.575C656.687 198.941 655.687 196.108 653.687 194.075C651.687 192.008 648.854 190.975 645.187 190.975H640.237V214.025H645.187ZM698.827 205.525C698.827 206.525 698.76 207.425 698.627 208.225H678.377C678.544 210.225 679.244 211.791 680.477 212.925C681.71 214.058 683.227 214.625 685.027 214.625C687.627 214.625 689.477 213.508 690.577 211.275H698.127C697.327 213.941 695.794 216.141 693.527 217.875C691.26 219.575 688.477 220.425 685.177 220.425C682.51 220.425 680.11 219.841 677.977 218.675C675.877 217.475 674.227 215.791 673.027 213.625C671.86 211.458 671.277 208.958 671.277 206.125C671.277 203.258 671.86 200.741 673.027 198.575C674.194 196.408 675.827 194.741 677.927 193.575C680.027 192.408 682.444 191.825 685.177 191.825C687.81 191.825 690.16 192.391 692.227 193.525C694.327 194.658 695.944 196.275 697.077 198.375C698.244 200.441 698.827 202.825 698.827 205.525ZM691.577 203.525C691.544 201.725 690.894 200.291 689.627 199.225C688.36 198.125 686.81 197.575 684.977 197.575C683.244 197.575 681.777 198.108 680.577 199.175C679.41 200.208 678.694 201.658 678.427 203.525H691.577ZM718.536 220.425C716.27 220.425 714.236 220.025 712.436 219.225C710.636 218.391 709.203 217.275 708.136 215.875C707.103 214.475 706.536 212.925 706.436 211.225H713.486C713.62 212.291 714.136 213.175 715.036 213.875C715.97 214.575 717.12 214.925 718.486 214.925C719.82 214.925 720.853 214.658 721.586 214.125C722.353 213.591 722.736 212.908 722.736 212.075C722.736 211.175 722.27 210.508 721.336 210.075C720.436 209.608 718.986 209.108 716.986 208.575C714.92 208.075 713.22 207.558 711.886 207.025C710.586 206.491 709.453 205.675 708.486 204.575C707.553 203.475 707.086 201.991 707.086 200.125C707.086 198.591 707.52 197.191 708.386 195.925C709.286 194.658 710.553 193.658 712.186 192.925C713.853 192.191 715.803 191.825 718.036 191.825C721.336 191.825 723.97 192.658 725.936 194.325C727.903 195.958 728.986 198.175 729.186 200.975H722.486C722.386 199.875 721.92 199.008 721.086 198.375C720.286 197.708 719.203 197.375 717.836 197.375C716.57 197.375 715.586 197.608 714.886 198.075C714.22 198.541 713.886 199.191 713.886 200.025C713.886 200.958 714.353 201.675 715.286 202.175C716.22 202.641 717.67 203.125 719.636 203.625C721.636 204.125 723.286 204.641 724.586 205.175C725.886 205.708 727.003 206.541 727.936 207.675C728.903 208.775 729.403 210.241 729.436 212.075C729.436 213.675 728.986 215.108 728.086 216.375C727.22 217.641 725.953 218.641 724.286 219.375C722.653 220.075 720.736 220.425 718.536 220.425ZM742.732 188.975C741.499 188.975 740.466 188.591 739.632 187.825C738.832 187.025 738.432 186.041 738.432 184.875C738.432 183.708 738.832 182.741 739.632 181.975C740.466 181.175 741.499 180.775 742.732 180.775C743.966 180.775 744.982 181.175 745.782 181.975C746.616 182.741 747.032 183.708 747.032 184.875C747.032 186.041 746.616 187.025 745.782 187.825C744.982 188.591 743.966 188.975 742.732 188.975ZM746.182 192.275V219.975H739.182V192.275H746.182ZM767.948 191.825C770.015 191.825 771.832 192.241 773.398 193.075C774.965 193.875 776.198 194.925 777.098 196.225V192.275H784.148V220.175C784.148 222.741 783.632 225.025 782.598 227.025C781.565 229.058 780.015 230.658 777.948 231.825C775.882 233.025 773.382 233.625 770.448 233.625C766.515 233.625 763.282 232.708 760.748 230.875C758.248 229.041 756.832 226.541 756.498 223.375H763.448C763.815 224.641 764.598 225.641 765.798 226.375C767.032 227.141 768.515 227.525 770.248 227.525C772.282 227.525 773.932 226.908 775.198 225.675C776.465 224.475 777.098 222.641 777.098 220.175V215.875C776.198 217.175 774.948 218.258 773.348 219.125C771.782 219.991 769.982 220.425 767.948 220.425C765.615 220.425 763.482 219.825 761.548 218.625C759.615 217.425 758.082 215.741 756.948 213.575C755.848 211.375 755.298 208.858 755.298 206.025C755.298 203.225 755.848 200.741 756.948 198.575C758.082 196.408 759.598 194.741 761.498 193.575C763.432 192.408 765.582 191.825 767.948 191.825ZM777.098 206.125C777.098 204.425 776.765 202.975 776.098 201.775C775.432 200.541 774.532 199.608 773.398 198.975C772.265 198.308 771.048 197.975 769.748 197.975C768.448 197.975 767.248 198.291 766.148 198.925C765.048 199.558 764.148 200.491 763.448 201.725C762.782 202.925 762.448 204.358 762.448 206.025C762.448 207.691 762.782 209.158 763.448 210.425C764.148 211.658 765.048 212.608 766.148 213.275C767.282 213.941 768.482 214.275 769.748 214.275C771.048 214.275 772.265 213.958 773.398 213.325C774.532 212.658 775.432 211.725 776.098 210.525C776.765 209.291 777.098 207.825 777.098 206.125ZM810.335 191.875C813.635 191.875 816.302 192.925 818.335 195.025C820.368 197.091 821.385 199.991 821.385 203.725V219.975H814.385V204.675C814.385 202.475 813.835 200.791 812.735 199.625C811.635 198.425 810.135 197.825 808.235 197.825C806.302 197.825 804.768 198.425 803.635 199.625C802.535 200.791 801.985 202.475 801.985 204.675V219.975H794.985V192.275H801.985V195.725C802.918 194.525 804.102 193.591 805.535 192.925C807.002 192.225 808.602 191.875 810.335 191.875ZM857.792 205.525C857.792 206.525 857.725 207.425 857.592 208.225H837.342C837.508 210.225 838.208 211.791 839.442 212.925C840.675 214.058 842.192 214.625 843.992 214.625C846.592 214.625 848.442 213.508 849.542 211.275H857.092C856.292 213.941 854.758 216.141 852.492 217.875C850.225 219.575 847.442 220.425 844.142 220.425C841.475 220.425 839.075 219.841 836.942 218.675C834.842 217.475 833.192 215.791 831.992 213.625C830.825 211.458 830.242 208.958 830.242 206.125C830.242 203.258 830.825 200.741 831.992 198.575C833.158 196.408 834.792 194.741 836.892 193.575C838.992 192.408 841.408 191.825 844.142 191.825C846.775 191.825 849.125 192.391 851.192 193.525C853.292 194.658 854.908 196.275 856.042 198.375C857.208 200.441 857.792 202.825 857.792 205.525ZM850.542 203.525C850.508 201.725 849.858 200.291 848.592 199.225C847.325 198.125 845.775 197.575 843.942 197.575C842.208 197.575 840.742 198.108 839.542 199.175C838.375 200.208 837.658 201.658 837.392 203.525H850.542ZM873.901 196.575C874.801 195.108 875.968 193.958 877.401 193.125C878.868 192.291 880.534 191.875 882.401 191.875V199.225H880.551C878.351 199.225 876.684 199.741 875.551 200.775C874.451 201.808 873.901 203.608 873.901 206.175V219.975H866.901V192.275H873.901V196.575ZM919.23 185.075C922.897 185.075 926.113 185.791 928.88 187.225C931.68 188.658 933.83 190.708 935.33 193.375C936.863 196.008 937.63 199.075 937.63 202.575C937.63 206.075 936.863 209.141 935.33 211.775C933.83 214.375 931.68 216.391 928.88 217.825C926.113 219.258 922.897 219.975 919.23 219.975H907.03V185.075H919.23ZM918.98 214.025C922.647 214.025 925.48 213.025 927.48 211.025C929.48 209.025 930.48 206.208 930.48 202.575C930.48 198.941 929.48 196.108 927.48 194.075C925.48 192.008 922.647 190.975 918.98 190.975H914.03V214.025H918.98ZM972.62 205.525C972.62 206.525 972.553 207.425 972.42 208.225H952.17C952.337 210.225 953.037 211.791 954.27 212.925C955.503 214.058 957.02 214.625 958.82 214.625C961.42 214.625 963.27 213.508 964.37 211.275H971.92C971.12 213.941 969.587 216.141 967.32 217.875C965.053 219.575 962.27 220.425 958.97 220.425C956.303 220.425 953.903 219.841 951.77 218.675C949.67 217.475 948.02 215.791 946.82 213.625C945.653 211.458 945.07 208.958 945.07 206.125C945.07 203.258 945.653 200.741 946.82 198.575C947.987 196.408 949.62 194.741 951.72 193.575C953.82 192.408 956.237 191.825 958.97 191.825C961.603 191.825 963.953 192.391 966.02 193.525C968.12 194.658 969.737 196.275 970.87 198.375C972.037 200.441 972.62 202.825 972.62 205.525ZM965.37 203.525C965.337 201.725 964.687 200.291 963.42 199.225C962.153 198.125 960.603 197.575 958.77 197.575C957.037 197.575 955.57 198.108 954.37 199.175C953.203 200.208 952.487 201.658 952.22 203.525H965.37ZM993.279 213.525L1000.28 192.275H1007.73L997.479 219.975H988.979L978.779 192.275H986.279L993.279 213.525ZM1041.41 205.525C1041.41 206.525 1041.34 207.425 1041.21 208.225H1020.96C1021.13 210.225 1021.83 211.791 1023.06 212.925C1024.29 214.058 1025.81 214.625 1027.61 214.625C1030.21 214.625 1032.06 213.508 1033.16 211.275H1040.71C1039.91 213.941 1038.38 216.141 1036.11 217.875C1033.84 219.575 1031.06 220.425 1027.76 220.425C1025.09 220.425 1022.69 219.841 1020.56 218.675C1018.46 217.475 1016.81 215.791 1015.61 213.625C1014.44 211.458 1013.86 208.958 1013.86 206.125C1013.86 203.258 1014.44 200.741 1015.61 198.575C1016.78 196.408 1018.41 194.741 1020.51 193.575C1022.61 192.408 1025.03 191.825 1027.76 191.825C1030.39 191.825 1032.74 192.391 1034.81 193.525C1036.91 194.658 1038.53 196.275 1039.66 198.375C1040.83 200.441 1041.41 202.825 1041.41 205.525ZM1034.16 203.525C1034.13 201.725 1033.48 200.291 1032.21 199.225C1030.94 198.125 1029.39 197.575 1027.56 197.575C1025.83 197.575 1024.36 198.108 1023.16 199.175C1021.99 200.208 1021.28 201.658 1021.01 203.525H1034.16ZM1057.52 182.975V219.975H1050.52V182.975H1057.52ZM1080.74 220.425C1078.07 220.425 1075.67 219.841 1073.54 218.675C1071.4 217.475 1069.72 215.791 1068.49 213.625C1067.29 211.458 1066.69 208.958 1066.69 206.125C1066.69 203.291 1067.3 200.791 1068.54 198.625C1069.8 196.458 1071.52 194.791 1073.69 193.625C1075.85 192.425 1078.27 191.825 1080.94 191.825C1083.6 191.825 1086.02 192.425 1088.19 193.625C1090.35 194.791 1092.05 196.458 1093.29 198.625C1094.55 200.791 1095.19 203.291 1095.19 206.125C1095.19 208.958 1094.54 211.458 1093.24 213.625C1091.97 215.791 1090.24 217.475 1088.04 218.675C1085.87 219.841 1083.44 220.425 1080.74 220.425ZM1080.74 214.325C1082 214.325 1083.19 214.025 1084.29 213.425C1085.42 212.791 1086.32 211.858 1086.99 210.625C1087.65 209.391 1087.99 207.891 1087.99 206.125C1087.99 203.491 1087.29 201.475 1085.89 200.075C1084.52 198.641 1082.84 197.925 1080.84 197.925C1078.84 197.925 1077.15 198.641 1075.79 200.075C1074.45 201.475 1073.79 203.491 1073.79 206.125C1073.79 208.758 1074.44 210.791 1075.74 212.225C1077.07 213.625 1078.74 214.325 1080.74 214.325ZM1111.32 196.275C1112.22 195.008 1113.45 193.958 1115.02 193.125C1116.62 192.258 1118.44 191.825 1120.47 191.825C1122.84 191.825 1124.97 192.408 1126.87 193.575C1128.8 194.741 1130.32 196.408 1131.42 198.575C1132.55 200.708 1133.12 203.191 1133.12 206.025C1133.12 208.858 1132.55 211.375 1131.42 213.575C1130.32 215.741 1128.8 217.425 1126.87 218.625C1124.97 219.825 1122.84 220.425 1120.47 220.425C1118.44 220.425 1116.64 220.008 1115.07 219.175C1113.54 218.341 1112.29 217.291 1111.32 216.025V233.175H1104.32V192.275H1111.32V196.275ZM1125.97 206.025C1125.97 204.358 1125.62 202.925 1124.92 201.725C1124.25 200.491 1123.35 199.558 1122.22 198.925C1121.12 198.291 1119.92 197.975 1118.62 197.975C1117.35 197.975 1116.15 198.308 1115.02 198.975C1113.92 199.608 1113.02 200.541 1112.32 201.775C1111.65 203.008 1111.32 204.458 1111.32 206.125C1111.32 207.791 1111.65 209.241 1112.32 210.475C1113.02 211.708 1113.92 212.658 1115.02 213.325C1116.15 213.958 1117.35 214.275 1118.62 214.275C1119.92 214.275 1121.12 213.941 1122.22 213.275C1123.35 212.608 1124.25 211.658 1124.92 210.425C1125.62 209.191 1125.97 207.725 1125.97 206.025ZM1167.96 205.525C1167.96 206.525 1167.89 207.425 1167.76 208.225H1147.51C1147.67 210.225 1148.37 211.791 1149.61 212.925C1150.84 214.058 1152.36 214.625 1154.16 214.625C1156.76 214.625 1158.61 213.508 1159.71 211.275H1167.26C1166.46 213.941 1164.92 216.141 1162.66 217.875C1160.39 219.575 1157.61 220.425 1154.31 220.425C1151.64 220.425 1149.24 219.841 1147.11 218.675C1145.01 217.475 1143.36 215.791 1142.16 213.625C1140.99 211.458 1140.41 208.958 1140.41 206.125C1140.41 203.258 1140.99 200.741 1142.16 198.575C1143.32 196.408 1144.96 194.741 1147.06 193.575C1149.16 192.408 1151.57 191.825 1154.31 191.825C1156.94 191.825 1159.29 192.391 1161.36 193.525C1163.46 194.658 1165.07 196.275 1166.21 198.375C1167.37 200.441 1167.96 202.825 1167.96 205.525ZM1160.71 203.525C1160.67 201.725 1160.02 200.291 1158.76 199.225C1157.49 198.125 1155.94 197.575 1154.11 197.575C1152.37 197.575 1150.91 198.108 1149.71 199.175C1148.54 200.208 1147.82 201.658 1147.56 203.525H1160.71ZM1184.07 196.575C1184.97 195.108 1186.13 193.958 1187.57 193.125C1189.03 192.291 1190.7 191.875 1192.57 191.875V199.225H1190.72C1188.52 199.225 1186.85 199.741 1185.72 200.775C1184.62 201.808 1184.07 203.608 1184.07 206.175V219.975H1177.07V192.275H1184.07V196.575Z" fill="white"/>
</svg>
