<svg width="1247" height="245" viewBox="0 0 1247 245" fill="none" xmlns="http://www.w3.org/2000/svg">
<path fill-rule="evenodd" clip-rule="evenodd" d="M97.3981 20.7368H28.3785C13.1354 20.7368 0.778473 33.0938 0.778473 48.3368V195.537C0.778473 210.78 13.1354 223.137 28.3785 223.137H144.008L143.896 170.763C139.559 172.117 134.615 172.794 129.063 172.794C124.942 172.794 120.722 172.402 116.404 171.617C112.184 170.734 108.014 169.458 103.892 167.79C99.7705 166.023 95.7961 163.815 91.9689 161.166L101.39 144.532C103.941 146.397 106.689 148.065 109.633 149.537C112.675 150.911 115.717 151.99 118.759 152.775C121.801 153.561 124.598 153.953 127.15 153.953C129.701 153.953 132.253 153.609 134.804 152.923C137.454 152.137 139.613 150.862 141.281 149.095C143.047 147.329 143.93 144.876 143.93 141.735C143.93 139.576 143.195 137.614 141.722 135.847C140.349 134.081 138.435 132.462 135.982 130.99C133.627 129.518 131.026 128.242 128.18 127.163C124.843 125.887 121.409 124.415 117.876 122.747C114.343 121.078 111.007 119.067 107.867 116.711C104.824 114.258 102.322 111.265 100.359 107.732C98.4947 104.101 97.5625 99.6852 97.5625 94.4842L97.5627 94.3368H97.5549L97.3981 20.7368ZM166.092 223.137L165.923 145.538C166.079 144.292 166.158 143.024 166.158 141.735C166.158 136.534 165.422 132.167 163.95 128.634C162.478 125.004 160.515 122.011 158.062 119.655C155.608 117.202 152.812 115.19 149.671 113.62C146.629 111.952 143.538 110.529 140.398 109.351C136.963 108.076 133.627 106.653 130.388 105.083C127.248 103.512 124.647 101.746 122.587 99.7834C120.624 97.7226 119.643 95.4163 119.643 92.865C119.643 89.1358 120.967 86.3392 123.617 84.4745C126.267 82.61 129.897 81.6776 134.51 81.6776C138.239 81.6776 142.213 82.4137 146.433 83.8858C150.751 85.3576 154.97 87.2223 159.092 89.4794L167.188 73.1402C162.87 70.2942 157.964 67.841 152.468 65.7802C147.071 63.7194 140.005 62.6889 131.271 62.6889C127.06 62.8747 123.161 63.5492 119.575 64.7122L119.479 20.7368H341.179C356.422 20.7368 368.779 33.0938 368.779 48.3368V195.537C368.779 210.78 356.422 223.137 341.179 223.137H181.737L166.098 244.297V223.137H166.092ZM215.102 73.3976L239.875 134.467L263.089 73.3976H288.407L238.948 186.742L189.489 73.3976H215.102Z" fill="#03426D"/>
<path fill-rule="evenodd" clip-rule="evenodd" d="M98.7585 21.6571V0.49707L83.7986 20.7371H28.3785C13.1354 20.7371 0.778473 33.094 0.778473 48.3371V195.537C0.778473 210.78 13.1354 223.137 28.3785 223.137H144.229L143.881 170.784L141.633 171.396C141.633 171.396 137.216 172.711 129.063 172.795C124.942 172.795 120.722 172.402 116.404 171.617C112.184 170.734 108.014 169.458 103.892 167.79C99.7705 166.024 95.7961 163.816 91.9689 161.166L101.39 144.532C103.941 146.397 106.689 148.065 109.633 149.537C112.675 150.911 115.717 151.991 118.759 152.776C121.801 153.561 124.598 153.953 127.15 153.953C129.701 153.953 132.253 153.61 134.804 152.923C137.454 152.138 139.613 150.862 141.281 149.096C143.047 147.329 143.93 144.876 143.93 141.736C143.93 139.577 143.195 137.614 141.722 135.848C140.349 134.081 138.435 132.462 135.982 130.99C133.627 129.518 131.026 128.242 128.18 127.163C124.844 125.887 121.409 124.415 117.876 122.747C114.343 121.078 111.007 119.067 107.867 116.712C104.824 114.258 102.322 111.265 100.359 107.732C98.4947 104.102 97.5625 99.6855 97.5625 94.4844C97.5625 91.1011 97.9612 87.96 98.7585 85.0609L98.7585 21.6571Z" fill="#ED1B24"/>
<path d="M508.89 51.153C504.186 48.577 499.37 46.449 494.442 44.769C489.626 43.089 485.09 42.249 480.834 42.249C475.57 42.249 471.426 43.313 468.402 45.441C465.378 47.569 463.866 50.761 463.866 55.017C463.866 57.929 464.986 60.561 467.226 62.913C469.578 65.153 472.546 67.169 476.13 68.961C479.826 70.753 483.634 72.377 487.554 73.833C491.138 75.177 494.666 76.801 498.138 78.705C501.722 80.497 504.914 82.793 507.714 85.593C510.514 88.281 512.754 91.697 514.434 95.841C516.114 99.873 516.954 104.857 516.954 110.793C516.954 117.065 515.33 122.889 512.082 128.265C508.834 133.641 504.074 138.009 497.802 141.369C491.53 144.617 483.802 146.241 474.618 146.241C469.914 146.241 465.098 145.793 460.17 144.897C455.354 143.889 450.594 142.433 445.89 140.529C441.186 138.513 436.65 135.993 432.282 132.969L443.034 113.985C445.946 116.113 449.082 118.017 452.442 119.697C455.914 121.265 459.386 122.497 462.858 123.393C466.33 124.289 469.522 124.737 472.434 124.737C475.346 124.737 478.258 124.345 481.17 123.561C484.194 122.665 486.658 121.209 488.562 119.193C490.578 117.177 491.586 114.377 491.586 110.793C491.586 108.329 490.746 106.089 489.066 104.073C487.498 102.057 485.314 100.209 482.514 98.529C479.826 96.849 476.858 95.393 473.61 94.161C469.802 92.705 465.882 91.025 461.85 89.121C457.818 87.217 454.01 84.921 450.426 82.233C446.954 79.433 444.098 76.017 441.858 71.985C439.73 67.841 438.666 62.801 438.666 56.865C438.666 49.697 440.234 43.481 443.37 38.217C446.618 32.953 451.154 28.809 456.978 25.785C462.802 22.649 469.522 20.913 477.138 20.577C487.106 20.577 495.17 21.753 501.33 24.105C507.602 26.457 513.202 29.257 518.13 32.505L508.89 51.153ZM526.868 144.897L582.644 16.377H583.988L639.764 144.897H611.54L575.924 54.513L593.564 42.417L550.892 144.897H526.868ZM565.004 100.209H602.132L610.7 120.705H557.444L565.004 100.209ZM768.5 149.937L674.756 65.265L681.98 69.297L682.484 144.897H657.788V16.377H658.796L750.524 100.713L745.148 98.361L744.644 21.249H769.172V149.937H768.5Z" fill="#ED1B24"/>
<path d="M801.866 144.897V21.249H838.826C851.258 21.249 861.842 23.097 870.578 26.793C879.314 30.489 886.314 35.417 891.578 41.577C896.954 47.737 900.874 54.625 903.338 62.241C905.802 69.857 907.034 77.529 907.034 85.257C907.034 94.441 905.354 102.729 901.994 110.121C898.746 117.401 894.266 123.673 888.554 128.937C882.842 134.089 876.234 138.065 868.73 140.865C861.226 143.553 853.274 144.897 844.874 144.897H801.866ZM826.226 121.377H840.674C846.834 121.377 852.434 120.593 857.474 119.025C862.514 117.345 866.826 114.937 870.41 111.801C874.106 108.665 876.906 104.745 878.81 100.041C880.826 95.225 881.834 89.737 881.834 83.577C881.834 75.513 880.49 68.961 877.802 63.921C875.226 58.769 871.978 54.793 868.058 51.993C864.25 49.193 860.33 47.289 856.298 46.281C852.266 45.161 848.85 44.601 846.05 44.601H826.226V121.377ZM931.476 21.249H1015.81V44.769H955.836V71.145H1008.92V94.665H955.836V121.377H1018.16V144.897H931.476V21.249ZM1043.37 21.249H1127.7V44.769H1067.73V71.145H1120.81V94.665H1067.73V121.377H1130.05V144.897H1043.37V21.249ZM1192.72 21.249C1202.91 21.249 1211.54 22.985 1218.59 26.457C1225.65 29.817 1231.02 34.633 1234.72 40.905C1238.42 47.065 1240.26 54.401 1240.26 62.913C1240.26 67.953 1239.48 73.049 1237.91 78.201C1236.46 83.241 1234.05 87.833 1230.69 91.977C1227.44 96.121 1223.02 99.481 1217.42 102.057C1211.93 104.521 1205.15 105.753 1197.09 105.753H1179.62V144.897H1155.26V21.249H1192.72ZM1196.92 82.065C1200.62 82.065 1203.7 81.449 1206.16 80.217C1208.62 78.873 1210.53 77.249 1211.87 75.345C1213.33 73.329 1214.34 71.257 1214.9 69.129C1215.57 67.001 1215.9 65.153 1215.9 63.585C1215.9 62.353 1215.68 60.729 1215.23 58.713C1214.9 56.585 1214.11 54.457 1212.88 52.329C1211.65 50.201 1209.74 48.409 1207.17 46.953C1204.7 45.497 1201.34 44.769 1197.09 44.769H1179.62V82.065H1196.92Z" fill="#03426D"/>
<path d="M536.006 184.997L526.256 219.897H518.006L511.456 195.047L504.606 219.897L496.406 219.947L487.006 184.997H494.506L500.656 212.097L507.756 184.997H515.556L522.256 211.947L528.456 184.997H536.006ZM570.327 205.447C570.327 206.447 570.26 207.347 570.127 208.147H549.877C550.044 210.147 550.744 211.714 551.977 212.847C553.21 213.98 554.727 214.547 556.527 214.547C559.127 214.547 560.977 213.43 562.077 211.197H569.627C568.827 213.864 567.294 216.064 565.027 217.797C562.76 219.497 559.977 220.347 556.677 220.347C554.01 220.347 551.61 219.764 549.477 218.597C547.377 217.397 545.727 215.714 544.527 213.547C543.36 211.38 542.777 208.88 542.777 206.047C542.777 203.18 543.36 200.664 544.527 198.497C545.694 196.33 547.327 194.664 549.427 193.497C551.527 192.33 553.944 191.747 556.677 191.747C559.31 191.747 561.66 192.314 563.727 193.447C565.827 194.58 567.444 196.197 568.577 198.297C569.744 200.364 570.327 202.747 570.327 205.447ZM563.077 203.447C563.044 201.647 562.394 200.214 561.127 199.147C559.86 198.047 558.31 197.497 556.477 197.497C554.744 197.497 553.277 198.03 552.077 199.097C550.91 200.13 550.194 201.58 549.927 203.447H563.077ZM586.436 196.247C587.336 194.914 588.57 193.83 590.136 192.997C591.736 192.164 593.553 191.747 595.586 191.747C597.953 191.747 600.086 192.33 601.986 193.497C603.92 194.664 605.436 196.33 606.536 198.497C607.67 200.63 608.236 203.114 608.236 205.947C608.236 208.78 607.67 211.297 606.536 213.497C605.436 215.664 603.92 217.347 601.986 218.547C600.086 219.747 597.953 220.347 595.586 220.347C593.52 220.347 591.703 219.947 590.136 219.147C588.603 218.314 587.37 217.247 586.436 215.947V219.897H579.436V182.897H586.436V196.247ZM601.086 205.947C601.086 204.28 600.736 202.847 600.036 201.647C599.37 200.414 598.47 199.48 597.336 198.847C596.236 198.214 595.036 197.897 593.736 197.897C592.47 197.897 591.27 198.23 590.136 198.897C589.036 199.53 588.136 200.464 587.436 201.697C586.77 202.93 586.436 204.38 586.436 206.047C586.436 207.714 586.77 209.164 587.436 210.397C588.136 211.63 589.036 212.58 590.136 213.247C591.27 213.88 592.47 214.197 593.736 214.197C595.036 214.197 596.236 213.864 597.336 213.197C598.47 212.53 599.37 211.58 600.036 210.347C600.736 209.114 601.086 207.647 601.086 205.947ZM645.437 184.997C649.104 184.997 652.32 185.714 655.087 187.147C657.887 188.58 660.037 190.63 661.537 193.297C663.07 195.93 663.837 198.997 663.837 202.497C663.837 205.997 663.07 209.064 661.537 211.697C660.037 214.297 657.887 216.314 655.087 217.747C652.32 219.18 649.104 219.897 645.437 219.897H633.237V184.997H645.437ZM645.187 213.947C648.854 213.947 651.687 212.947 653.687 210.947C655.687 208.947 656.687 206.13 656.687 202.497C656.687 198.864 655.687 196.03 653.687 193.997C651.687 191.93 648.854 190.897 645.187 190.897H640.237V213.947H645.187ZM698.827 205.447C698.827 206.447 698.76 207.347 698.627 208.147H678.377C678.544 210.147 679.244 211.714 680.477 212.847C681.71 213.98 683.227 214.547 685.027 214.547C687.627 214.547 689.477 213.43 690.577 211.197H698.127C697.327 213.864 695.794 216.064 693.527 217.797C691.26 219.497 688.477 220.347 685.177 220.347C682.51 220.347 680.11 219.764 677.977 218.597C675.877 217.397 674.227 215.714 673.027 213.547C671.86 211.38 671.277 208.88 671.277 206.047C671.277 203.18 671.86 200.664 673.027 198.497C674.194 196.33 675.827 194.664 677.927 193.497C680.027 192.33 682.444 191.747 685.177 191.747C687.81 191.747 690.16 192.314 692.227 193.447C694.327 194.58 695.944 196.197 697.077 198.297C698.244 200.364 698.827 202.747 698.827 205.447ZM691.577 203.447C691.544 201.647 690.894 200.214 689.627 199.147C688.36 198.047 686.81 197.497 684.977 197.497C683.244 197.497 681.777 198.03 680.577 199.097C679.41 200.13 678.694 201.58 678.427 203.447H691.577ZM718.536 220.347C716.27 220.347 714.236 219.947 712.436 219.147C710.636 218.314 709.203 217.197 708.136 215.797C707.103 214.397 706.536 212.847 706.436 211.147H713.486C713.62 212.214 714.136 213.097 715.036 213.797C715.97 214.497 717.12 214.847 718.486 214.847C719.82 214.847 720.853 214.58 721.586 214.047C722.353 213.514 722.736 212.83 722.736 211.997C722.736 211.097 722.27 210.43 721.336 209.997C720.436 209.53 718.986 209.03 716.986 208.497C714.92 207.997 713.22 207.48 711.886 206.947C710.586 206.414 709.453 205.597 708.486 204.497C707.553 203.397 707.086 201.914 707.086 200.047C707.086 198.514 707.52 197.114 708.386 195.847C709.286 194.58 710.553 193.58 712.186 192.847C713.853 192.114 715.803 191.747 718.036 191.747C721.336 191.747 723.97 192.58 725.936 194.247C727.903 195.88 728.986 198.097 729.186 200.897H722.486C722.386 199.797 721.92 198.93 721.086 198.297C720.286 197.63 719.203 197.297 717.836 197.297C716.57 197.297 715.586 197.53 714.886 197.997C714.22 198.464 713.886 199.114 713.886 199.947C713.886 200.88 714.353 201.597 715.286 202.097C716.22 202.564 717.67 203.047 719.636 203.547C721.636 204.047 723.286 204.564 724.586 205.097C725.886 205.63 727.003 206.464 727.936 207.597C728.903 208.697 729.403 210.164 729.436 211.997C729.436 213.597 728.986 215.03 728.086 216.297C727.22 217.564 725.953 218.564 724.286 219.297C722.653 219.997 720.736 220.347 718.536 220.347ZM742.732 188.897C741.499 188.897 740.466 188.514 739.632 187.747C738.832 186.947 738.432 185.964 738.432 184.797C738.432 183.63 738.832 182.664 739.632 181.897C740.466 181.097 741.499 180.697 742.732 180.697C743.966 180.697 744.982 181.097 745.782 181.897C746.616 182.664 747.032 183.63 747.032 184.797C747.032 185.964 746.616 186.947 745.782 187.747C744.982 188.514 743.966 188.897 742.732 188.897ZM746.182 192.197V219.897H739.182V192.197H746.182ZM767.948 191.747C770.015 191.747 771.832 192.164 773.398 192.997C774.965 193.797 776.198 194.847 777.098 196.147V192.197H784.148V220.097C784.148 222.664 783.632 224.947 782.598 226.947C781.565 228.98 780.015 230.58 777.948 231.747C775.882 232.947 773.382 233.547 770.448 233.547C766.515 233.547 763.282 232.63 760.748 230.797C758.248 228.964 756.832 226.464 756.498 223.297H763.448C763.815 224.564 764.598 225.564 765.798 226.297C767.032 227.064 768.515 227.447 770.248 227.447C772.282 227.447 773.932 226.83 775.198 225.597C776.465 224.397 777.098 222.564 777.098 220.097V215.797C776.198 217.097 774.948 218.18 773.348 219.047C771.782 219.914 769.982 220.347 767.948 220.347C765.615 220.347 763.482 219.747 761.548 218.547C759.615 217.347 758.082 215.664 756.948 213.497C755.848 211.297 755.298 208.78 755.298 205.947C755.298 203.147 755.848 200.664 756.948 198.497C758.082 196.33 759.598 194.664 761.498 193.497C763.432 192.33 765.582 191.747 767.948 191.747ZM777.098 206.047C777.098 204.347 776.765 202.897 776.098 201.697C775.432 200.464 774.532 199.53 773.398 198.897C772.265 198.23 771.048 197.897 769.748 197.897C768.448 197.897 767.248 198.214 766.148 198.847C765.048 199.48 764.148 200.414 763.448 201.647C762.782 202.847 762.448 204.28 762.448 205.947C762.448 207.614 762.782 209.08 763.448 210.347C764.148 211.58 765.048 212.53 766.148 213.197C767.282 213.864 768.482 214.197 769.748 214.197C771.048 214.197 772.265 213.88 773.398 213.247C774.532 212.58 775.432 211.647 776.098 210.447C776.765 209.214 777.098 207.747 777.098 206.047ZM810.335 191.797C813.635 191.797 816.302 192.847 818.335 194.947C820.368 197.014 821.385 199.914 821.385 203.647V219.897H814.385V204.597C814.385 202.397 813.835 200.714 812.735 199.547C811.635 198.347 810.135 197.747 808.235 197.747C806.302 197.747 804.768 198.347 803.635 199.547C802.535 200.714 801.985 202.397 801.985 204.597V219.897H794.985V192.197H801.985V195.647C802.918 194.447 804.102 193.514 805.535 192.847C807.002 192.147 808.602 191.797 810.335 191.797ZM857.792 205.447C857.792 206.447 857.725 207.347 857.592 208.147H837.342C837.508 210.147 838.208 211.714 839.442 212.847C840.675 213.98 842.192 214.547 843.992 214.547C846.592 214.547 848.442 213.43 849.542 211.197H857.092C856.292 213.864 854.758 216.064 852.492 217.797C850.225 219.497 847.442 220.347 844.142 220.347C841.475 220.347 839.075 219.764 836.942 218.597C834.842 217.397 833.192 215.714 831.992 213.547C830.825 211.38 830.242 208.88 830.242 206.047C830.242 203.18 830.825 200.664 831.992 198.497C833.158 196.33 834.792 194.664 836.892 193.497C838.992 192.33 841.408 191.747 844.142 191.747C846.775 191.747 849.125 192.314 851.192 193.447C853.292 194.58 854.908 196.197 856.042 198.297C857.208 200.364 857.792 202.747 857.792 205.447ZM850.542 203.447C850.508 201.647 849.858 200.214 848.592 199.147C847.325 198.047 845.775 197.497 843.942 197.497C842.208 197.497 840.742 198.03 839.542 199.097C838.375 200.13 837.658 201.58 837.392 203.447H850.542ZM873.901 196.497C874.801 195.03 875.968 193.88 877.401 193.047C878.868 192.214 880.534 191.797 882.401 191.797V199.147H880.551C878.351 199.147 876.684 199.664 875.551 200.697C874.451 201.73 873.901 203.53 873.901 206.097V219.897H866.901V192.197H873.901V196.497ZM919.23 184.997C922.897 184.997 926.113 185.714 928.88 187.147C931.68 188.58 933.83 190.63 935.33 193.297C936.863 195.93 937.63 198.997 937.63 202.497C937.63 205.997 936.863 209.064 935.33 211.697C933.83 214.297 931.68 216.314 928.88 217.747C926.113 219.18 922.897 219.897 919.23 219.897H907.03V184.997H919.23ZM918.98 213.947C922.647 213.947 925.48 212.947 927.48 210.947C929.48 208.947 930.48 206.13 930.48 202.497C930.48 198.864 929.48 196.03 927.48 193.997C925.48 191.93 922.647 190.897 918.98 190.897H914.03V213.947H918.98ZM972.62 205.447C972.62 206.447 972.553 207.347 972.42 208.147H952.17C952.337 210.147 953.037 211.714 954.27 212.847C955.503 213.98 957.02 214.547 958.82 214.547C961.42 214.547 963.27 213.43 964.37 211.197H971.92C971.12 213.864 969.587 216.064 967.32 217.797C965.053 219.497 962.27 220.347 958.97 220.347C956.303 220.347 953.903 219.764 951.77 218.597C949.67 217.397 948.02 215.714 946.82 213.547C945.653 211.38 945.07 208.88 945.07 206.047C945.07 203.18 945.653 200.664 946.82 198.497C947.987 196.33 949.62 194.664 951.72 193.497C953.82 192.33 956.237 191.747 958.97 191.747C961.603 191.747 963.953 192.314 966.02 193.447C968.12 194.58 969.737 196.197 970.87 198.297C972.037 200.364 972.62 202.747 972.62 205.447ZM965.37 203.447C965.337 201.647 964.687 200.214 963.42 199.147C962.153 198.047 960.603 197.497 958.77 197.497C957.037 197.497 955.57 198.03 954.37 199.097C953.203 200.13 952.487 201.58 952.22 203.447H965.37ZM993.279 213.447L1000.28 192.197H1007.73L997.479 219.897H988.979L978.779 192.197H986.279L993.279 213.447ZM1041.41 205.447C1041.41 206.447 1041.34 207.347 1041.21 208.147H1020.96C1021.13 210.147 1021.83 211.714 1023.06 212.847C1024.29 213.98 1025.81 214.547 1027.61 214.547C1030.21 214.547 1032.06 213.43 1033.16 211.197H1040.71C1039.91 213.864 1038.38 216.064 1036.11 217.797C1033.84 219.497 1031.06 220.347 1027.76 220.347C1025.09 220.347 1022.69 219.764 1020.56 218.597C1018.46 217.397 1016.81 215.714 1015.61 213.547C1014.44 211.38 1013.86 208.88 1013.86 206.047C1013.86 203.18 1014.44 200.664 1015.61 198.497C1016.78 196.33 1018.41 194.664 1020.51 193.497C1022.61 192.33 1025.03 191.747 1027.76 191.747C1030.39 191.747 1032.74 192.314 1034.81 193.447C1036.91 194.58 1038.53 196.197 1039.66 198.297C1040.83 200.364 1041.41 202.747 1041.41 205.447ZM1034.16 203.447C1034.13 201.647 1033.48 200.214 1032.21 199.147C1030.94 198.047 1029.39 197.497 1027.56 197.497C1025.83 197.497 1024.36 198.03 1023.16 199.097C1021.99 200.13 1021.28 201.58 1021.01 203.447H1034.16ZM1057.52 182.897V219.897H1050.52V182.897H1057.52ZM1080.74 220.347C1078.07 220.347 1075.67 219.764 1073.54 218.597C1071.4 217.397 1069.72 215.714 1068.49 213.547C1067.29 211.38 1066.69 208.88 1066.69 206.047C1066.69 203.214 1067.3 200.714 1068.54 198.547C1069.8 196.38 1071.52 194.714 1073.69 193.547C1075.85 192.347 1078.27 191.747 1080.94 191.747C1083.6 191.747 1086.02 192.347 1088.19 193.547C1090.35 194.714 1092.05 196.38 1093.29 198.547C1094.55 200.714 1095.19 203.214 1095.19 206.047C1095.19 208.88 1094.54 211.38 1093.24 213.547C1091.97 215.714 1090.24 217.397 1088.04 218.597C1085.87 219.764 1083.44 220.347 1080.74 220.347ZM1080.74 214.247C1082 214.247 1083.19 213.947 1084.29 213.347C1085.42 212.714 1086.32 211.78 1086.99 210.547C1087.65 209.314 1087.99 207.814 1087.99 206.047C1087.99 203.414 1087.29 201.397 1085.89 199.997C1084.52 198.564 1082.84 197.847 1080.84 197.847C1078.84 197.847 1077.15 198.564 1075.79 199.997C1074.45 201.397 1073.79 203.414 1073.79 206.047C1073.79 208.68 1074.44 210.714 1075.74 212.147C1077.07 213.547 1078.74 214.247 1080.74 214.247ZM1111.32 196.197C1112.22 194.93 1113.45 193.88 1115.02 193.047C1116.62 192.18 1118.44 191.747 1120.47 191.747C1122.84 191.747 1124.97 192.33 1126.87 193.497C1128.8 194.664 1130.32 196.33 1131.42 198.497C1132.55 200.63 1133.12 203.114 1133.12 205.947C1133.12 208.78 1132.55 211.297 1131.42 213.497C1130.32 215.664 1128.8 217.347 1126.87 218.547C1124.97 219.747 1122.84 220.347 1120.47 220.347C1118.44 220.347 1116.64 219.93 1115.07 219.097C1113.54 218.264 1112.29 217.214 1111.32 215.947V233.097H1104.32V192.197H1111.32V196.197ZM1125.97 205.947C1125.97 204.28 1125.62 202.847 1124.92 201.647C1124.25 200.414 1123.35 199.48 1122.22 198.847C1121.12 198.214 1119.92 197.897 1118.62 197.897C1117.35 197.897 1116.15 198.23 1115.02 198.897C1113.92 199.53 1113.02 200.464 1112.32 201.697C1111.65 202.93 1111.32 204.38 1111.32 206.047C1111.32 207.714 1111.65 209.164 1112.32 210.397C1113.02 211.63 1113.92 212.58 1115.02 213.247C1116.15 213.88 1117.35 214.197 1118.62 214.197C1119.92 214.197 1121.12 213.864 1122.22 213.197C1123.35 212.53 1124.25 211.58 1124.92 210.347C1125.62 209.114 1125.97 207.647 1125.97 205.947ZM1167.96 205.447C1167.96 206.447 1167.89 207.347 1167.76 208.147H1147.51C1147.67 210.147 1148.37 211.714 1149.61 212.847C1150.84 213.98 1152.36 214.547 1154.16 214.547C1156.76 214.547 1158.61 213.43 1159.71 211.197H1167.26C1166.46 213.864 1164.92 216.064 1162.66 217.797C1160.39 219.497 1157.61 220.347 1154.31 220.347C1151.64 220.347 1149.24 219.764 1147.11 218.597C1145.01 217.397 1143.36 215.714 1142.16 213.547C1140.99 211.38 1140.41 208.88 1140.41 206.047C1140.41 203.18 1140.99 200.664 1142.16 198.497C1143.32 196.33 1144.96 194.664 1147.06 193.497C1149.16 192.33 1151.57 191.747 1154.31 191.747C1156.94 191.747 1159.29 192.314 1161.36 193.447C1163.46 194.58 1165.07 196.197 1166.21 198.297C1167.37 200.364 1167.96 202.747 1167.96 205.447ZM1160.71 203.447C1160.67 201.647 1160.02 200.214 1158.76 199.147C1157.49 198.047 1155.94 197.497 1154.11 197.497C1152.37 197.497 1150.91 198.03 1149.71 199.097C1148.54 200.13 1147.82 201.58 1147.56 203.447H1160.71ZM1184.07 196.497C1184.97 195.03 1186.13 193.88 1187.57 193.047C1189.03 192.214 1190.7 191.797 1192.57 191.797V199.147H1190.72C1188.52 199.147 1186.85 199.664 1185.72 200.697C1184.62 201.73 1184.07 203.53 1184.07 206.097V219.897H1177.07V192.197H1184.07V196.497Z" fill="black"/>
</svg>
