<svg width="1143" height="245" viewBox="0 0 1143 245" fill="none" xmlns="http://www.w3.org/2000/svg">
<path fill-rule="evenodd" clip-rule="evenodd" d="M97.407 20.6353H28.3873C13.1443 20.6353 0.787338 32.9922 0.787338 48.2353V195.435C0.787338 210.678 13.1443 223.035 28.3873 223.035H144.017L143.905 170.661C139.568 172.016 134.624 172.693 129.072 172.693C124.951 172.693 120.731 172.301 116.413 171.515C112.193 170.632 108.023 169.356 103.901 167.688C99.7793 165.922 95.8049 163.714 91.9777 161.064L101.399 144.431C103.95 146.295 106.698 147.963 109.642 149.435C112.684 150.809 115.726 151.889 118.768 152.674C121.81 153.459 124.607 153.851 127.159 153.851C129.71 153.851 132.261 153.508 134.813 152.821C137.463 152.036 139.621 150.76 141.29 148.994C143.056 147.227 143.939 144.774 143.939 141.634C143.939 139.475 143.203 137.512 141.731 135.746C140.357 133.979 138.444 132.36 135.991 130.888C133.635 129.416 131.035 128.141 128.189 127.061C124.852 125.785 121.418 124.313 117.885 122.645C114.352 120.977 111.016 118.965 107.875 116.61C104.833 114.156 102.331 111.163 100.368 107.631C98.5036 104 97.5714 99.5837 97.5714 94.3826L97.5716 94.2353H97.5638L97.407 20.6353ZM166.101 223.035L165.932 145.436C166.088 144.19 166.167 142.923 166.167 141.634C166.167 136.433 165.431 132.066 163.959 128.533C162.487 124.902 160.524 121.909 158.071 119.554C155.617 117.101 152.82 115.089 149.68 113.519C146.638 111.85 143.547 110.427 140.407 109.25C136.972 107.974 133.635 106.551 130.397 104.981C127.257 103.411 124.656 101.644 122.595 99.6818C120.633 97.621 119.651 95.3148 119.651 92.7634C119.651 89.0342 120.976 86.2376 123.626 84.3729C126.275 82.5084 129.906 81.5761 134.519 81.5761C138.248 81.5761 142.222 82.3121 146.442 83.7842C150.76 85.2561 154.979 87.1208 159.101 89.3779L167.197 73.0387C162.879 70.1926 157.972 67.7394 152.477 65.6787C147.08 63.6179 140.014 62.5874 131.28 62.5874C127.069 62.7731 123.17 63.4476 119.583 64.6106L119.487 20.6353H341.187C356.43 20.6353 368.787 32.9922 368.787 48.2353V195.435C368.787 210.678 356.43 223.035 341.187 223.035H181.746L166.106 244.195V223.035H166.101ZM215.111 73.2961L239.884 134.366L263.098 73.2961H288.416L238.957 186.64L189.498 73.2961H215.111Z" fill="#03426D"/>
<path fill-rule="evenodd" clip-rule="evenodd" d="M98.7674 21.5555V0.395508L83.8074 20.6355H28.3873C13.1443 20.6355 0.787338 32.9924 0.787338 48.2355V195.436C0.787338 210.679 13.1443 223.036 28.3873 223.036H144.238L143.89 170.682L141.642 171.295C141.642 171.295 137.225 172.61 129.072 172.693C124.951 172.693 120.731 172.301 116.413 171.516C112.193 170.632 108.023 169.357 103.901 167.688C99.7793 165.922 95.8049 163.714 91.9778 161.064L101.399 144.431C103.95 146.295 106.698 147.964 109.642 149.436C112.684 150.809 115.726 151.889 118.768 152.674C121.81 153.459 124.607 153.852 127.159 153.852C129.71 153.852 132.261 153.508 134.813 152.821C137.463 152.036 139.621 150.761 141.29 148.994C143.056 147.228 143.939 144.774 143.939 141.634C143.939 139.475 143.203 137.512 141.731 135.746C140.357 133.98 138.444 132.361 135.991 130.888C133.635 129.416 131.035 128.141 128.189 127.061C124.852 125.786 121.418 124.313 117.885 122.645C114.352 120.977 111.016 118.965 107.875 116.61C104.833 114.157 102.331 111.164 100.368 107.631C98.5036 104 97.5714 99.5839 97.5714 94.3829C97.5714 90.9996 97.9701 87.8584 98.7674 84.9594L98.7674 21.5555Z" fill="#ED1B24"/>
<path d="M664.28 82.1252L666.15 95.3852L665.81 94.1952C668.417 89.5485 672.1 85.8085 676.86 82.9752C681.62 80.0285 687.457 78.5552 694.37 78.5552C701.397 78.5552 707.234 80.6518 711.88 84.8452C716.64 88.9252 719.077 94.2518 719.19 100.825V156.415H695.39V109.665C695.277 106.379 694.37 103.772 692.67 101.845C691.084 99.8052 688.364 98.7852 684.51 98.7852C680.884 98.7852 677.71 99.9752 674.99 102.355C672.27 104.735 670.174 107.965 668.7 112.045C667.227 116.125 666.49 120.829 666.49 126.155V156.415H642.69V82.1252H664.28Z" fill="#ED1B24"/>
<path d="M569.546 158.455C562.633 158.455 556.343 157.095 550.676 154.375C545.123 151.542 540.703 147.235 537.416 141.455C534.13 135.675 532.486 128.309 532.486 119.355C532.486 110.969 534.186 103.715 537.586 97.5953C540.986 91.4753 545.463 86.7719 551.016 83.4853C556.57 80.0853 562.463 78.3853 568.696 78.3853C576.063 78.3853 581.616 79.6319 585.356 82.1253C589.21 84.5053 592.383 87.1686 594.876 90.1153L593.856 93.0053L596.066 82.1253H618.166V156.415H594.366V140.265L596.236 145.365C596.01 145.365 595.33 146.045 594.196 147.405C593.063 148.652 591.363 150.182 589.096 151.995C586.943 153.695 584.223 155.169 580.936 156.415C577.763 157.775 573.966 158.455 569.546 158.455ZM576.346 139.075C579.18 139.075 581.73 138.679 583.996 137.885C586.263 136.979 588.246 135.732 589.946 134.145C591.646 132.445 593.12 130.349 594.366 127.855V109.665C593.46 107.172 592.1 105.075 590.286 103.375C588.473 101.562 586.32 100.202 583.826 99.2953C581.333 98.2753 578.556 97.7653 575.496 97.7653C572.096 97.7653 568.923 98.6719 565.976 100.485C563.143 102.185 560.876 104.565 559.176 107.625C557.476 110.685 556.626 114.199 556.626 118.165C556.626 122.132 557.533 125.702 559.346 128.875C561.16 132.049 563.54 134.542 566.486 136.355C569.546 138.169 572.833 139.075 576.346 139.075Z" fill="#ED1B24"/>
<path d="M509.875 61.5552C505.115 58.9486 500.242 56.7952 495.255 55.0952C490.382 53.3952 485.792 52.5452 481.485 52.5452C476.158 52.5452 471.965 53.6219 468.905 55.7752C465.845 57.9286 464.315 61.1586 464.315 65.4652C464.315 68.4119 465.448 71.0752 467.715 73.4552C470.095 75.7219 473.098 77.7619 476.725 79.5752C480.465 81.3886 484.318 83.0319 488.285 84.5052C491.912 85.8652 495.482 87.5086 498.995 89.4352C502.622 91.2486 505.852 93.5719 508.685 96.4052C511.518 99.1252 513.785 102.582 515.485 106.775C517.185 110.855 518.035 115.899 518.035 121.905C518.035 128.252 516.392 134.145 513.105 139.585C509.818 145.025 505.002 149.445 498.655 152.845C492.308 156.132 484.488 157.775 475.195 157.775C470.435 157.775 465.562 157.322 460.575 156.415C455.702 155.395 450.885 153.922 446.125 151.995C441.365 149.955 436.775 147.405 432.355 144.345L443.235 125.135C446.182 127.289 449.355 129.215 452.755 130.915C456.268 132.502 459.782 133.749 463.295 134.655C466.808 135.562 470.038 136.015 472.985 136.015C475.932 136.015 478.878 135.619 481.825 134.825C484.885 133.919 487.378 132.445 489.305 130.405C491.345 128.365 492.365 125.532 492.365 121.905C492.365 119.412 491.515 117.145 489.815 115.105C488.228 113.065 486.018 111.195 483.185 109.495C480.465 107.795 477.462 106.322 474.175 105.075C470.322 103.602 466.355 101.902 462.275 99.9752C458.195 98.0486 454.342 95.7252 450.715 93.0052C447.202 90.1719 444.312 86.7152 442.045 82.6352C439.892 78.4419 438.815 73.3419 438.815 67.3352C438.815 60.0819 440.402 53.7919 443.575 48.4652C446.862 43.1386 451.452 38.9452 457.345 35.8852C463.238 32.7119 470.038 30.9552 477.745 30.6152C487.832 30.6152 495.992 31.8052 502.225 34.1852C508.572 36.5652 514.238 39.3986 519.225 42.6852L509.875 61.5552Z" fill="#ED1B24"/>
<path d="M1101.82 158.455C1097.4 158.455 1093.03 157.662 1088.73 156.075C1084.53 154.375 1081.02 151.995 1078.19 148.935L1078.87 141.965V192.115H1055.24V80.4253H1075.64L1079.04 94.8753L1077.17 89.7753C1081.02 86.4886 1085.33 83.7686 1090.09 81.6153C1094.85 79.4619 1100.34 78.3853 1106.58 78.3853C1113.49 78.3853 1119.67 80.0286 1125.11 83.3153C1130.55 86.4886 1134.8 91.1353 1137.86 97.2553C1141.03 103.262 1142.62 110.515 1142.62 119.015C1142.62 127.402 1140.86 134.542 1137.35 140.435C1133.83 146.329 1129.02 150.805 1122.9 153.865C1116.78 156.925 1109.75 158.455 1101.82 158.455ZM1097.06 139.755C1100.91 139.755 1104.42 138.905 1107.6 137.205C1110.88 135.505 1113.49 133.125 1115.42 130.065C1117.46 126.892 1118.48 123.322 1118.48 119.355C1118.48 115.162 1117.57 111.535 1115.76 108.475C1114.06 105.302 1111.68 102.865 1108.62 101.165C1105.67 99.3519 1102.38 98.4453 1098.76 98.4453C1095.58 98.4453 1092.75 98.8986 1090.26 99.8053C1087.88 100.599 1085.72 101.845 1083.8 103.545C1081.98 105.132 1080.4 107.172 1079.04 109.665V127.855C1079.94 130.235 1081.25 132.332 1082.95 134.145C1084.65 135.959 1086.69 137.375 1089.07 138.395C1091.56 139.302 1094.22 139.755 1097.06 139.755Z" fill="#03426D"/>
<path d="M997.822 158.455C988.756 158.455 981.049 156.755 974.702 153.355C968.469 149.955 963.709 145.252 960.422 139.245C957.136 133.239 955.492 126.325 955.492 118.505C955.492 111.025 957.419 104.282 961.272 98.2752C965.126 92.2685 970.282 87.5085 976.742 83.9952C983.202 80.3685 990.399 78.5552 998.332 78.5552C1008.99 78.5552 1017.71 81.6718 1024.51 87.9052C1031.43 94.0252 1035.9 102.922 1037.94 114.595L980.142 132.955L974.872 120.035L1016.69 105.925L1011.76 108.135C1010.86 105.189 1009.21 102.639 1006.83 100.485C1004.57 98.2185 1001.11 97.0852 996.462 97.0852C992.949 97.0852 989.832 97.9352 987.112 99.6352C984.506 101.222 982.466 103.545 980.992 106.605C979.632 109.552 978.952 113.065 978.952 117.145C978.952 121.792 979.802 125.702 981.502 128.875C983.202 131.935 985.526 134.259 988.472 135.845C991.419 137.432 994.706 138.225 998.332 138.225C1000.94 138.225 1003.43 137.772 1005.81 136.865C1008.31 135.959 1010.74 134.769 1013.12 133.295L1023.66 150.975C1019.7 153.242 1015.39 155.055 1010.74 156.415C1006.21 157.775 1001.9 158.455 997.822 158.455Z" fill="#03426D"/>
<path d="M903.857 158.455C894.791 158.455 887.084 156.755 880.737 153.355C874.504 149.955 869.744 145.252 866.457 139.245C863.171 133.239 861.527 126.325 861.527 118.505C861.527 111.025 863.454 104.282 867.307 98.2752C871.161 92.2685 876.317 87.5085 882.777 83.9952C889.237 80.3685 896.434 78.5552 904.367 78.5552C915.021 78.5552 923.747 81.6718 930.547 87.9052C937.461 94.0252 941.937 102.922 943.977 114.595L886.177 132.955L880.907 120.035L922.727 105.925L917.797 108.135C916.891 105.189 915.247 102.639 912.867 100.485C910.601 98.2185 907.144 97.0852 902.497 97.0852C898.984 97.0852 895.867 97.9352 893.147 99.6352C890.541 101.222 888.501 103.545 887.027 106.605C885.667 109.552 884.987 113.065 884.987 117.145C884.987 121.792 885.837 125.702 887.537 128.875C889.237 131.935 891.561 134.259 894.507 135.845C897.454 137.432 900.741 138.225 904.367 138.225C906.974 138.225 909.467 137.772 911.847 136.865C914.341 135.959 916.777 134.769 919.157 133.295L929.697 150.975C925.731 153.242 921.424 155.055 916.777 156.415C912.244 157.775 907.937 158.455 903.857 158.455Z" fill="#03426D"/>
<path d="M740.065 156.415V31.2954H777.465C790.045 31.2954 800.755 33.1654 809.595 36.9054C818.435 40.6454 825.518 45.6321 830.845 51.8654C836.285 58.0988 840.252 65.0688 842.745 72.7754C845.238 80.4821 846.485 88.2454 846.485 96.0654C846.485 105.359 844.785 113.745 841.385 121.225C838.098 128.592 833.565 134.939 827.785 140.265C822.005 145.479 815.318 149.502 807.725 152.335C800.132 155.055 792.085 156.415 783.585 156.415H740.065ZM764.715 132.615H779.335C785.568 132.615 791.235 131.822 796.335 130.235C801.435 128.535 805.798 126.099 809.425 122.925C813.165 119.752 815.998 115.785 817.925 111.025C819.965 106.152 820.985 100.599 820.985 94.3654C820.985 86.2054 819.625 79.5754 816.905 74.4754C814.298 69.2621 811.012 65.2388 807.045 62.4054C803.192 59.5721 799.225 57.6454 795.145 56.6254C791.065 55.4921 787.608 54.9254 784.775 54.9254H764.715V132.615Z" fill="#03426D"/>
<path d="M995.283 195.015C996.183 193.548 997.35 192.398 998.783 191.565C1000.25 190.732 1001.92 190.315 1003.78 190.315V197.665H1001.93C999.733 197.665 998.066 198.182 996.933 199.215C995.833 200.248 995.283 202.048 995.283 204.615V218.415H988.283V190.715H995.283V195.015Z" fill="black"/>
<path d="M979.174 203.965C979.174 204.965 979.107 205.865 978.974 206.665H958.724C958.89 208.665 959.59 210.232 960.824 211.365C962.057 212.498 963.574 213.065 965.374 213.065C967.974 213.065 969.824 211.948 970.924 209.715H978.474C977.674 212.382 976.14 214.582 973.874 216.315C971.607 218.015 968.824 218.865 965.524 218.865C962.857 218.865 960.457 218.282 958.324 217.115C956.224 215.915 954.574 214.232 953.374 212.065C952.207 209.898 951.624 207.398 951.624 204.565C951.624 201.698 952.207 199.182 953.374 197.015C954.54 194.848 956.174 193.182 958.274 192.015C960.374 190.848 962.79 190.265 965.524 190.265C968.157 190.265 970.507 190.832 972.574 191.965C974.674 193.098 976.29 194.715 977.424 196.815C978.59 198.882 979.174 201.265 979.174 203.965ZM971.924 201.965C971.89 200.165 971.24 198.732 969.974 197.665C968.707 196.565 967.157 196.015 965.324 196.015C963.59 196.015 962.124 196.548 960.924 197.615C959.757 198.648 959.04 200.098 958.774 201.965H971.924Z" fill="black"/>
<path d="M922.537 194.715C923.437 193.448 924.67 192.398 926.237 191.565C927.837 190.698 929.654 190.265 931.687 190.265C934.054 190.265 936.187 190.848 938.087 192.015C940.02 193.182 941.537 194.848 942.637 197.015C943.77 199.148 944.337 201.632 944.337 204.465C944.337 207.298 943.77 209.815 942.637 212.015C941.537 214.182 940.02 215.865 938.087 217.065C936.187 218.265 934.054 218.865 931.687 218.865C929.654 218.865 927.854 218.448 926.287 217.615C924.754 216.782 923.504 215.732 922.537 214.465V231.615H915.537V190.715H922.537V194.715ZM937.187 204.465C937.187 202.798 936.837 201.365 936.137 200.165C935.47 198.932 934.57 197.998 933.437 197.365C932.337 196.732 931.137 196.415 929.837 196.415C928.57 196.415 927.37 196.748 926.237 197.415C925.137 198.048 924.237 198.982 923.537 200.215C922.87 201.448 922.537 202.898 922.537 204.565C922.537 206.232 922.87 207.682 923.537 208.915C924.237 210.148 925.137 211.098 926.237 211.765C927.37 212.398 928.57 212.715 929.837 212.715C931.137 212.715 932.337 212.382 933.437 211.715C934.57 211.048 935.47 210.098 936.137 208.865C936.837 207.632 937.187 206.165 937.187 204.465Z" fill="black"/>
<path d="M891.952 218.865C889.286 218.865 886.886 218.282 884.752 217.115C882.619 215.915 880.936 214.232 879.702 212.065C878.502 209.898 877.902 207.398 877.902 204.565C877.902 201.732 878.519 199.232 879.752 197.065C881.019 194.898 882.736 193.232 884.902 192.065C887.069 190.865 889.486 190.265 892.152 190.265C894.819 190.265 897.236 190.865 899.402 192.065C901.569 193.232 903.269 194.898 904.502 197.065C905.769 199.232 906.402 201.732 906.402 204.565C906.402 207.398 905.752 209.898 904.452 212.065C903.186 214.232 901.452 215.915 899.252 217.115C897.086 218.282 894.652 218.865 891.952 218.865ZM891.952 212.765C893.219 212.765 894.402 212.465 895.502 211.865C896.636 211.232 897.536 210.298 898.202 209.065C898.869 207.832 899.202 206.332 899.202 204.565C899.202 201.932 898.502 199.915 897.102 198.515C895.736 197.082 894.052 196.365 892.052 196.365C890.052 196.365 888.369 197.082 887.002 198.515C885.669 199.915 885.002 201.932 885.002 204.565C885.002 207.198 885.652 209.232 886.952 210.665C888.286 212.065 889.952 212.765 891.952 212.765Z" fill="black"/>
<path d="M868.736 181.415V218.415H861.736V181.415H868.736Z" fill="black"/>
<path d="M852.627 203.965C852.627 204.965 852.56 205.865 852.427 206.665H832.177C832.343 208.665 833.043 210.232 834.277 211.365C835.51 212.498 837.027 213.065 838.827 213.065C841.427 213.065 843.277 211.948 844.377 209.715H851.927C851.127 212.382 849.593 214.582 847.327 216.315C845.06 218.015 842.277 218.865 838.977 218.865C836.31 218.865 833.91 218.282 831.777 217.115C829.677 215.915 828.027 214.232 826.827 212.065C825.66 209.898 825.077 207.398 825.077 204.565C825.077 201.698 825.66 199.182 826.827 197.015C827.993 194.848 829.627 193.182 831.727 192.015C833.827 190.848 836.243 190.265 838.977 190.265C841.61 190.265 843.96 190.832 846.027 191.965C848.127 193.098 849.743 194.715 850.877 196.815C852.043 198.882 852.627 201.265 852.627 203.965ZM845.377 201.965C845.343 200.165 844.693 198.732 843.427 197.665C842.16 196.565 840.61 196.015 838.777 196.015C837.043 196.015 835.577 196.548 834.377 197.615C833.21 198.648 832.493 200.098 832.227 201.965H845.377Z" fill="black"/>
<path d="M804.495 211.965L811.495 190.715H818.945L808.695 218.415H800.195L789.995 190.715H797.495L804.495 211.965Z" fill="black"/>
<path d="M783.836 203.965C783.836 204.965 783.769 205.865 783.636 206.665H763.386C763.552 208.665 764.252 210.232 765.486 211.365C766.719 212.498 768.236 213.065 770.036 213.065C772.636 213.065 774.486 211.948 775.586 209.715H783.136C782.336 212.382 780.802 214.582 778.536 216.315C776.269 218.015 773.486 218.865 770.186 218.865C767.519 218.865 765.119 218.282 762.986 217.115C760.886 215.915 759.236 214.232 758.036 212.065C756.869 209.898 756.286 207.398 756.286 204.565C756.286 201.698 756.869 199.182 758.036 197.015C759.202 194.848 760.836 193.182 762.936 192.015C765.036 190.848 767.452 190.265 770.186 190.265C772.819 190.265 775.169 190.832 777.236 191.965C779.336 193.098 780.952 194.715 782.086 196.815C783.252 198.882 783.836 201.265 783.836 203.965ZM776.586 201.965C776.552 200.165 775.902 198.732 774.636 197.665C773.369 196.565 771.819 196.015 769.986 196.015C768.252 196.015 766.786 196.548 765.586 197.615C764.419 198.648 763.702 200.098 763.436 201.965H776.586Z" fill="black"/>
<path d="M730.446 183.515C734.113 183.515 737.329 184.232 740.096 185.665C742.896 187.098 745.046 189.148 746.546 191.815C748.079 194.448 748.846 197.515 748.846 201.015C748.846 204.515 748.079 207.582 746.546 210.215C745.046 212.815 742.896 214.832 740.096 216.265C737.329 217.698 734.113 218.415 730.446 218.415H718.246V183.515H730.446ZM730.196 212.465C733.863 212.465 736.696 211.465 738.696 209.465C740.696 207.465 741.696 204.648 741.696 201.015C741.696 197.382 740.696 194.548 738.696 192.515C736.696 190.448 733.863 189.415 730.196 189.415H725.246V212.465H730.196Z" fill="black"/>
<path d="M671.445 194.765C672.345 193.432 673.578 192.348 675.145 191.515C676.745 190.682 678.562 190.265 680.595 190.265C682.962 190.265 685.095 190.848 686.995 192.015C688.928 193.182 690.445 194.848 691.545 197.015C692.679 199.148 693.245 201.632 693.245 204.465C693.245 207.298 692.679 209.815 691.545 212.015C690.445 214.182 688.928 215.865 686.995 217.065C685.095 218.265 682.962 218.865 680.595 218.865C678.528 218.865 676.712 218.465 675.145 217.665C673.612 216.832 672.378 215.765 671.445 214.465V218.415H664.445V181.415H671.445V194.765ZM686.095 204.465C686.095 202.798 685.745 201.365 685.045 200.165C684.378 198.932 683.478 197.998 682.345 197.365C681.245 196.732 680.045 196.415 678.745 196.415C677.478 196.415 676.278 196.748 675.145 197.415C674.045 198.048 673.145 198.982 672.445 200.215C671.779 201.448 671.445 202.898 671.445 204.565C671.445 206.232 671.779 207.682 672.445 208.915C673.145 210.148 674.045 211.098 675.145 211.765C676.278 212.398 677.478 212.715 678.745 212.715C680.045 212.715 681.245 212.382 682.345 211.715C683.478 211.048 684.378 210.098 685.045 208.865C685.745 207.632 686.095 206.165 686.095 204.465Z" fill="black"/>
<path d="M655.336 203.965C655.336 204.965 655.269 205.865 655.136 206.665H634.886C635.052 208.665 635.752 210.232 636.986 211.365C638.219 212.498 639.736 213.065 641.536 213.065C644.136 213.065 645.986 211.948 647.086 209.715H654.636C653.836 212.382 652.302 214.582 650.036 216.315C647.769 218.015 644.986 218.865 641.686 218.865C639.019 218.865 636.619 218.282 634.486 217.115C632.386 215.915 630.736 214.232 629.536 212.065C628.369 209.898 627.786 207.398 627.786 204.565C627.786 201.698 628.369 199.182 629.536 197.015C630.702 194.848 632.336 193.182 634.436 192.015C636.536 190.848 638.952 190.265 641.686 190.265C644.319 190.265 646.669 190.832 648.736 191.965C650.836 193.098 652.452 194.715 653.586 196.815C654.752 198.882 655.336 201.265 655.336 203.965ZM648.086 201.965C648.052 200.165 647.402 198.732 646.136 197.665C644.869 196.565 643.319 196.015 641.486 196.015C639.752 196.015 638.286 196.548 637.086 197.615C635.919 198.648 635.202 200.098 634.936 201.965H648.086Z" fill="black"/>
<path d="M621.015 183.515L611.265 218.415H603.015L596.465 193.565L589.615 218.415L581.415 218.465L572.015 183.515H579.515L585.665 210.615L592.765 183.515H600.565L607.265 210.465L613.465 183.515H621.015Z" fill="black"/>
</svg>
