<svg width="100" height="101" viewBox="0 0 100 101" fill="none" xmlns="http://www.w3.org/2000/svg">
<rect y="0.355133" width="100" height="100" rx="10" fill="#4B813F"/>
<path d="M60.6066 53.4771C60.583 53.6078 60.5183 53.7283 60.4213 53.8224C60.3243 53.9166 60.1997 53.9797 60.0643 54.0033L56.5544 54.6678C56.5197 54.6744 56.4837 54.6704 56.4515 54.6562C56.4193 54.6421 56.3925 54.6187 56.3749 54.5891L54.8529 52.0474C54.8298 52.0085 54.7986 51.9747 54.7614 51.948C54.7241 51.9213 54.6816 51.9022 54.6364 51.8921C54.5912 51.8819 54.5443 51.8807 54.4986 51.8888C54.453 51.8968 54.4095 51.9138 54.3709 51.9387C54.2993 51.9871 54.2494 52.0597 54.231 52.1421C54.2126 52.2245 54.2272 52.3106 54.2719 52.3831L55.7866 54.9128C55.8044 54.9423 55.8121 54.9763 55.8087 55.0102C55.8053 55.0441 55.7911 55.0762 55.7679 55.1019L53.416 57.7043C53.3263 57.8049 53.207 57.8768 53.0739 57.9103C52.9409 57.9439 52.8003 57.9377 52.6711 57.8923C52.5418 57.847 52.4299 57.7649 52.3502 57.6567C52.2706 57.5486 52.227 57.4197 52.2252 57.287L52.1867 49.3904C52.1853 49.2746 52.216 49.1605 52.2755 49.0598C52.335 48.9591 52.4212 48.8755 52.5253 48.8176C52.6293 48.7597 52.7475 48.7295 52.8677 48.7301C52.9879 48.7308 53.1057 48.7622 53.2091 48.8213L60.2835 52.7987C60.4032 52.866 60.4986 52.9672 60.5564 53.0886C60.6142 53.21 60.6317 53.3457 60.6066 53.4771Z" fill="white"/>
<path fill-rule="evenodd" clip-rule="evenodd" d="M47.3284 25.8492C49.0752 25.8492 50.4913 27.2146 50.4913 28.8989V34.3123C50.4913 34.7755 50.8808 35.151 51.3611 35.151C51.8415 35.151 52.231 34.7755 52.231 34.3123V28.8989C52.231 26.2882 50.036 24.1718 47.3284 24.1718C44.6207 24.1718 42.4258 26.2882 42.4258 28.8989V34.3123C42.4258 34.7755 42.8152 35.151 43.2956 35.151C43.776 35.151 44.1654 34.7755 44.1654 34.3123V28.8989C44.1654 27.2146 45.5815 25.8492 47.3284 25.8492Z" fill="white"/>
<path fill-rule="evenodd" clip-rule="evenodd" d="M58.014 33.8705C57.781 31.9067 56.0572 30.4239 54.0073 30.4239H40.7024C38.6375 30.4239 36.9063 31.9278 36.6915 33.9079L34.8887 50.5291C34.6397 52.8241 36.5064 54.822 38.8996 54.822H45.9636C48.68 54.822 50.6195 52.285 49.8158 49.7831L49.1651 47.7575C48.5273 45.7719 51.094 44.3059 52.5935 45.7992C55.11 48.3051 59.4896 46.3089 59.0785 42.8433L58.014 33.8705ZM54.0073 32.1013C55.173 32.1013 56.1531 32.9444 56.2856 34.0611L57.3501 43.034C57.5724 44.908 55.2041 45.9875 53.8433 44.6324C51.0702 41.8709 46.3239 44.582 47.5034 48.2537L48.1541 50.2794C48.6111 51.702 47.5082 53.1446 45.9636 53.1446H38.8996C37.5387 53.1446 36.4773 52.0086 36.6188 50.7036L38.4217 34.0824C38.5438 32.9564 39.5283 32.1013 40.7024 32.1013H54.0073Z" fill="white"/>
<path d="M24.0439 71.374C24.0439 69.6549 24.0439 67.9153 24.0439 66.1552C24.0439 64.3952 24.0439 62.6556 24.0439 60.9364C25.0971 60.9364 26.1606 60.9364 27.2346 60.9364C28.3086 60.9364 29.3721 60.9364 30.4252 60.9364C30.4252 61.3253 30.4252 61.7244 30.4252 62.1337C30.4252 62.543 30.4252 62.9421 30.4252 63.331C29.8205 63.331 29.2105 63.331 28.5953 63.331C27.9905 63.331 27.3858 63.331 26.781 63.331C26.781 63.5868 26.781 63.8426 26.781 64.0984C26.781 64.344 26.781 64.5947 26.781 64.8505C27.3336 64.8505 27.8915 64.8505 28.4545 64.8505C29.0176 64.8505 29.5702 64.8505 30.1124 64.8505C30.1124 65.2292 30.1124 65.6129 30.1124 66.0017C30.1124 66.3906 30.1124 66.7794 30.1124 67.1683C29.5702 67.1683 29.0176 67.1683 28.4545 67.1683C27.8915 67.1683 27.3336 67.1683 26.781 67.1683C26.781 67.4651 26.781 67.7669 26.781 68.0739C26.781 68.3809 26.781 68.6828 26.781 68.9795C27.3858 68.9795 27.9905 68.9795 28.5953 68.9795C29.2105 68.9795 29.8205 68.9795 30.4252 68.9795C30.4252 69.3684 30.4252 69.7675 30.4252 70.1768C30.4252 70.5861 30.4252 70.9852 30.4252 71.374C29.3721 71.374 28.3086 71.374 27.2346 71.374C26.1606 71.374 25.0971 71.374 24.0439 71.374Z" fill="white"/>
<path d="M40.5496 68.2274C40.5496 69.0051 40.3411 69.6395 39.924 70.1307C39.5173 70.6117 38.9647 70.9596 38.2661 71.1745C37.5779 71.3894 36.8063 71.4815 35.9513 71.4508C35.0963 71.4303 34.2257 71.3024 33.3394 71.067C33.3394 70.627 33.3394 70.187 33.3394 69.747C33.3394 69.307 33.3394 68.867 33.3394 68.4269C34.1527 68.7135 34.893 68.8925 35.5603 68.9642C36.2276 69.0358 36.7594 69.0102 37.1556 68.8874C37.5519 68.7544 37.75 68.5344 37.75 68.2274C37.75 68.0125 37.6405 67.8386 37.4215 67.7055C37.2025 67.5623 36.9158 67.4344 36.5613 67.3218C36.2172 67.2092 35.8523 67.0813 35.4665 66.9381C35.0807 66.7846 34.7105 66.5953 34.356 66.3701C34.0119 66.1348 33.7304 65.8329 33.5114 65.4645C33.2924 65.0859 33.183 64.6152 33.183 64.0524C33.183 63.3565 33.3706 62.7681 33.746 62.2872C34.1214 61.8062 34.6271 61.443 35.2631 61.1974C35.9096 60.9518 36.6395 60.829 37.4528 60.829C38.2765 60.829 39.1263 60.9518 40.0022 61.1974C40.0022 61.6374 40.0022 62.0774 40.0022 62.5174C40.0022 62.9574 40.0022 63.3975 40.0022 63.8375C39.2723 63.5305 38.5998 63.3463 37.9846 63.2849C37.3798 63.2133 36.895 63.244 36.53 63.377C36.1651 63.4998 35.9826 63.7045 35.9826 63.991C35.9826 64.1956 36.0921 64.3645 36.311 64.4975C36.53 64.6305 36.8115 64.7533 37.1556 64.8659C37.5101 64.9682 37.8803 65.0961 38.2661 65.2496C38.6519 65.3929 39.0168 65.5873 39.3609 65.8329C39.7154 66.0683 40.0022 66.3804 40.2211 66.7692C40.4401 67.1478 40.5496 67.6339 40.5496 68.2274Z" fill="white"/>
<path d="M45.9625 71.374C45.5142 71.374 45.0606 71.374 44.6018 71.374C44.143 71.374 43.6842 71.374 43.2255 71.374C43.2255 69.6549 43.2255 67.9153 43.2255 66.1552C43.2255 64.3952 43.2255 62.6556 43.2255 60.9364C43.6842 60.9364 44.143 60.9364 44.6018 60.9364C45.0606 60.9364 45.5142 60.9364 45.9625 60.9364C45.9625 61.5607 45.9625 62.19 45.9625 62.8244C45.9625 63.4486 45.9625 64.0728 45.9625 64.697C46.5152 64.697 47.073 64.697 47.6361 64.697C48.1991 64.697 48.7517 64.697 49.2939 64.697C49.2939 64.0728 49.2939 63.4486 49.2939 62.8244C49.2939 62.19 49.2939 61.5607 49.2939 60.9364C49.7527 60.9364 50.2115 60.9364 50.6703 60.9364C51.1291 60.9364 51.5827 60.9364 52.031 60.9364C52.031 62.6556 52.031 64.3952 52.031 66.1552C52.031 67.9153 52.031 69.6549 52.031 71.374C51.5827 71.374 51.1291 71.374 50.6703 71.374C50.2115 71.374 49.7527 71.374 49.2939 71.374C49.2939 70.6782 49.2939 69.9772 49.2939 69.2712C49.2939 68.5549 49.2939 67.8539 49.2939 67.1683C48.7517 67.1683 48.1991 67.1683 47.6361 67.1683C47.073 67.1683 46.5152 67.1683 45.9625 67.1683C45.9625 67.8539 45.9625 68.5549 45.9625 69.2712C45.9625 69.9772 45.9625 70.6782 45.9625 71.374Z" fill="white"/>
<path d="M60.0602 71.6196C59.299 71.6196 58.5952 71.4866 57.9487 71.2205C57.3022 70.9442 56.7444 70.5605 56.2752 70.0693C55.806 69.5781 55.441 69 55.1804 68.3348C54.9197 67.6595 54.7893 66.9278 54.7893 66.1399C54.7893 65.352 54.9197 64.6254 55.1804 63.9603C55.441 63.2951 55.806 62.7221 56.2752 62.2411C56.7444 61.75 57.3022 61.3713 57.9487 61.1053C58.5952 60.829 59.299 60.6909 60.0602 60.6909C60.8213 60.6909 61.5199 60.829 62.156 61.1053C62.8025 61.3713 63.3603 61.75 63.8295 62.2411C64.3091 62.7221 64.6793 63.2951 64.94 63.9603C65.2007 64.6254 65.331 65.352 65.331 66.1399C65.331 66.9278 65.2007 67.6595 64.94 68.3348C64.6793 69 64.3091 69.5781 63.8295 70.0693C63.3603 70.5605 62.8025 70.9442 62.156 71.2205C61.5199 71.4866 60.8213 71.6196 60.0602 71.6196ZM60.0602 69.133C60.5711 69.133 61.009 69.0102 61.374 68.7646C61.7389 68.5088 62.0204 68.1558 62.2185 67.7055C62.4271 67.2553 62.5314 66.7334 62.5314 66.1399C62.5314 65.5464 62.4271 65.0296 62.2185 64.5896C62.0204 64.1496 61.7389 63.8068 61.374 63.5612C61.009 63.3054 60.5711 63.1775 60.0602 63.1775C59.5597 63.1775 59.1217 63.3003 58.7464 63.5458C58.3814 63.7914 58.0947 64.1394 57.8861 64.5896C57.688 65.0296 57.589 65.5464 57.589 66.1399C57.589 66.7334 57.688 67.2553 57.8861 67.7055C58.0947 68.1558 58.3814 68.5088 58.7464 68.7646C59.1217 69.0102 59.5597 69.133 60.0602 69.133Z" fill="white"/>
<path d="M68.0888 71.374C68.0888 69.6549 68.0888 67.9153 68.0888 66.1552C68.0888 64.3952 68.0888 62.6556 68.0888 60.9364C68.7353 60.9364 69.3818 60.9364 70.0282 60.9364C70.6851 60.9364 71.3316 60.9364 71.9677 60.9364C72.7705 60.9364 73.4691 61.0899 74.0635 61.3969C74.6578 61.6937 75.1218 62.1132 75.4555 62.6556C75.7891 63.1979 75.956 63.8324 75.956 64.5589C75.956 65.2752 75.7891 65.9045 75.4555 66.4469C75.1322 66.9892 74.6839 67.4088 74.1104 67.7055C73.5473 68.0023 72.9061 68.1507 72.1866 68.1507C71.9572 68.1507 71.7278 68.1507 71.4984 68.1507C71.2795 68.1507 71.0553 68.1507 70.8259 68.1507C70.8259 68.6828 70.8259 69.22 70.8259 69.7623C70.8259 70.3047 70.8259 70.8419 70.8259 71.374C70.3775 71.374 69.924 71.374 69.4652 71.374C69.0064 71.374 68.5476 71.374 68.0888 71.374ZM71.9677 63.3463C71.78 63.3463 71.5871 63.3463 71.389 63.3463C71.2013 63.3463 71.0136 63.3463 70.8259 63.3463C70.8259 63.7556 70.8259 64.1701 70.8259 64.5896C70.8259 64.9989 70.8259 65.4082 70.8259 65.8176C71.0344 65.8176 71.2482 65.8176 71.4672 65.8176C71.6966 65.8176 71.9155 65.8176 72.1241 65.8176C72.4473 65.8176 72.708 65.6999 72.9061 65.4645C73.1146 65.2292 73.2189 64.9375 73.2189 64.5896C73.2189 64.2314 73.1094 63.9347 72.8904 63.6993C72.6715 63.464 72.3639 63.3463 71.9677 63.3463Z" fill="white"/>
<path d="M25.6625 75.0701C25.6625 75.1937 25.6342 75.3072 25.5778 75.4106C25.5213 75.5119 25.4346 75.594 25.3176 75.6568C25.2006 75.7196 25.0554 75.7511 24.8819 75.7511H24.5613V76.5171H24.0439V74.3831H24.8819C25.0514 74.3831 25.1946 74.4124 25.3115 74.4712C25.4285 74.53 25.5163 74.6111 25.5747 74.7144C25.6332 74.8178 25.6625 74.9363 25.6625 75.0701ZM24.8426 75.3376C24.9414 75.3376 25.0151 75.3143 25.0635 75.2677C25.1119 75.2211 25.1361 75.1552 25.1361 75.0701C25.1361 74.985 25.1119 74.9191 25.0635 74.8725C25.0151 74.8259 24.9414 74.8026 24.8426 74.8026H24.5613V75.3376H24.8426Z" fill="white"/>
<path d="M26.8485 74.3831V75.6599C26.8485 75.7875 26.8797 75.8858 26.9422 75.9547C27.0048 76.0236 27.0965 76.0581 27.2175 76.0581C27.3386 76.0581 27.4313 76.0236 27.4959 75.9547C27.5604 75.8858 27.5927 75.7875 27.5927 75.6599V74.3831H28.11V75.6568C28.11 75.8473 28.0697 76.0084 27.989 76.1402C27.9083 76.2719 27.7994 76.3712 27.6623 76.4381C27.5271 76.505 27.3759 76.5384 27.2085 76.5384C27.0411 76.5384 26.8908 76.506 26.7577 76.4411C26.6266 76.3743 26.5227 76.2749 26.4461 76.1432C26.3695 76.0095 26.3311 75.8473 26.3311 75.6568V74.3831H26.8485Z" fill="white"/>
<path d="M29.9647 76.5171L29.523 75.7115H29.399V76.5171H28.8817V74.3831H29.7499C29.9173 74.3831 30.0595 74.4124 30.1765 74.4712C30.2955 74.53 30.3842 74.6111 30.4427 74.7144C30.5012 74.8158 30.5305 74.9292 30.5305 75.0549C30.5305 75.1968 30.4901 75.3234 30.4095 75.4349C30.3308 75.5464 30.2138 75.6254 30.0585 75.672L30.5486 76.5171H29.9647ZM29.399 75.3437H29.7197C29.8145 75.3437 29.8851 75.3204 29.9315 75.2738C29.9799 75.2272 30.0041 75.1613 30.0041 75.0762C30.0041 74.9951 29.9799 74.9313 29.9315 74.8847C29.8851 74.838 29.8145 74.8147 29.7197 74.8147H29.399V75.3437Z" fill="white"/>
<path d="M31.1759 75.4471C31.1759 75.2363 31.2213 75.0488 31.312 74.8847C31.4028 74.7185 31.5288 74.5898 31.6902 74.4986C31.8536 74.4054 32.0381 74.3587 32.2438 74.3587C32.4959 74.3587 32.7117 74.4256 32.8912 74.5594C33.0707 74.6931 33.1907 74.8755 33.2512 75.1066H32.6825C32.6401 75.0174 32.5796 74.9495 32.501 74.9029C32.4243 74.8563 32.3366 74.833 32.2378 74.833C32.0784 74.833 31.9494 74.8887 31.8505 75.0002C31.7517 75.1116 31.7023 75.2606 31.7023 75.4471C31.7023 75.6335 31.7517 75.7825 31.8505 75.8939C31.9494 76.0054 32.0784 76.0611 32.2378 76.0611C32.3366 76.0611 32.4243 76.0378 32.501 75.9912C32.5796 75.9446 32.6401 75.8767 32.6825 75.7875H33.2512C33.1907 76.0186 33.0707 76.201 32.8912 76.3347C32.7117 76.4665 32.4959 76.5323 32.2438 76.5323C32.0381 76.5323 31.8536 76.4867 31.6902 76.3955C31.5288 76.3023 31.4028 76.1736 31.312 76.0095C31.2213 75.8453 31.1759 75.6578 31.1759 75.4471Z" fill="white"/>
<path d="M35.8158 74.3831V76.5171H35.2985V75.6386H34.4938V76.5171H33.9765V74.3831H34.4938V75.2191H35.2985V74.3831H35.8158Z" fill="white"/>
<path d="M37.9198 76.1402H37.1271L37.0001 76.5171H36.4585L37.227 74.3831H37.826L38.5944 76.5171H38.0468L37.9198 76.1402ZM37.7866 75.7389L37.5234 74.9576L37.2633 75.7389H37.7866Z" fill="white"/>
<path d="M40.0051 76.5384C39.8498 76.5384 39.7106 76.5131 39.5876 76.4624C39.4646 76.4117 39.3658 76.3368 39.2911 76.2375C39.2185 76.1381 39.1802 76.0186 39.1762 75.8787H39.7268C39.7348 75.9578 39.7621 76.0186 39.8085 76.0611C39.8548 76.1017 39.9153 76.1219 39.99 76.1219C40.0666 76.1219 40.1271 76.1047 40.1715 76.0703C40.2159 76.0338 40.238 75.9841 40.238 75.9213C40.238 75.8686 40.2199 75.825 40.1836 75.7906C40.1493 75.7561 40.1059 75.7277 40.0535 75.7055C40.0031 75.6832 39.9305 75.6578 39.8357 75.6295C39.6985 75.5869 39.5866 75.5443 39.4999 75.5018C39.4131 75.4592 39.3385 75.3964 39.276 75.3133C39.2135 75.2302 39.1822 75.1218 39.1822 74.988C39.1822 74.7894 39.2538 74.6344 39.397 74.5229C39.5402 74.4094 39.7268 74.3527 39.9567 74.3527C40.1906 74.3527 40.3792 74.4094 40.5224 74.5229C40.6656 74.6344 40.7423 74.7904 40.7523 74.9911H40.1927C40.1886 74.9222 40.1634 74.8684 40.117 74.8299C40.0706 74.7894 40.0111 74.7691 39.9385 74.7691C39.876 74.7691 39.8256 74.7864 39.7873 74.8208C39.749 74.8532 39.7298 74.9009 39.7298 74.9637C39.7298 75.0326 39.7621 75.0863 39.8266 75.1248C39.8911 75.1633 39.992 75.2049 40.1291 75.2495C40.2663 75.2961 40.3772 75.3407 40.4619 75.3832C40.5486 75.4258 40.6233 75.4876 40.6858 75.5687C40.7483 75.6497 40.7796 75.7541 40.7796 75.8818C40.7796 76.0034 40.7483 76.1138 40.6858 76.2131C40.6253 76.3124 40.5365 76.3915 40.4196 76.4503C40.3026 76.509 40.1644 76.5384 40.0051 76.5384Z" fill="white"/>
<path d="M42.0237 74.7995V75.2312H42.7165V75.6325H42.0237V76.1007H42.8072V76.5171H41.5063V74.3831H42.8072V74.7995H42.0237Z" fill="white"/>
<path d="M46.4222 74.3831L45.6871 75.8119V76.5171H45.1698V75.8119L44.4346 74.3831H45.0215L45.433 75.2768L45.8414 74.3831H46.4222Z" fill="white"/>
<path d="M48.0435 76.5384C47.8438 76.5384 47.6603 76.4918 47.4929 76.3986C47.3275 76.3053 47.1954 76.1756 47.0966 76.0095C46.9998 75.8412 46.9513 75.6528 46.9513 75.444C46.9513 75.2353 46.9998 75.0478 47.0966 74.8816C47.1954 74.7154 47.3275 74.5857 47.4929 74.4925C47.6603 74.3993 47.8438 74.3527 48.0435 74.3527C48.2431 74.3527 48.4257 74.3993 48.591 74.4925C48.7584 74.5857 48.8895 74.7154 48.9843 74.8816C49.0811 75.0478 49.1296 75.2353 49.1296 75.444C49.1296 75.6528 49.0811 75.8412 48.9843 76.0095C48.8875 76.1756 48.7564 76.3053 48.591 76.3986C48.4257 76.4918 48.2431 76.5384 48.0435 76.5384ZM48.0435 76.0642C48.2129 76.0642 48.348 76.0074 48.4489 75.8939C48.5517 75.7804 48.6032 75.6305 48.6032 75.444C48.6032 75.2555 48.5517 75.1056 48.4489 74.9941C48.348 74.8806 48.2129 74.8239 48.0435 74.8239C47.872 74.8239 47.7349 74.8796 47.632 74.9911C47.5312 75.1025 47.4808 75.2535 47.4808 75.444C47.4808 75.6325 47.5312 75.7835 47.632 75.897C47.7349 76.0084 47.872 76.0642 48.0435 76.0642Z" fill="white"/>
<path d="M50.334 74.3831V75.6599C50.334 75.7875 50.3653 75.8858 50.4278 75.9547C50.4903 76.0236 50.5821 76.0581 50.7031 76.0581C50.8241 76.0581 50.9169 76.0236 50.9814 75.9547C51.046 75.8858 51.0782 75.7875 51.0782 75.6599V74.3831H51.5956V75.6568C51.5956 75.8473 51.5552 76.0084 51.4746 76.1402C51.3939 76.2719 51.285 76.3712 51.1478 76.4381C51.0127 76.505 50.8614 76.5384 50.694 76.5384C50.5266 76.5384 50.3764 76.506 50.2433 76.4411C50.1122 76.3743 50.0083 76.2749 49.9317 76.1432C49.855 76.0095 49.8167 75.8473 49.8167 75.6568V74.3831H50.334Z" fill="white"/>
<path d="M53.4503 76.5171L53.0086 75.7115H52.8846V76.5171H52.3672V74.3831H53.2355C53.4029 74.3831 53.5451 74.4124 53.6621 74.4712C53.7811 74.53 53.8698 74.6111 53.9283 74.7144C53.9868 74.8158 54.016 74.9292 54.016 75.0549C54.016 75.1968 53.9757 75.3234 53.895 75.4349C53.8164 75.5464 53.6994 75.6254 53.5441 75.672L54.0342 76.5171H53.4503ZM52.8846 75.3437H53.2053C53.3 75.3437 53.3706 75.3204 53.417 75.2738C53.4654 75.2272 53.4896 75.1613 53.4896 75.0762C53.4896 74.9951 53.4654 74.9313 53.417 74.8847C53.3706 74.838 53.3 74.8147 53.2053 74.8147H52.8846V75.3437Z" fill="white"/>
<path d="M57.4172 75.0701C57.4172 75.1937 57.389 75.3072 57.3325 75.4106C57.276 75.5119 57.1893 75.594 57.0723 75.6568C56.9554 75.7196 56.8102 75.7511 56.6367 75.7511H56.316V76.5171H55.7987V74.3831H56.6367C56.8061 74.3831 56.9493 74.4124 57.0663 74.4712C57.1833 74.53 57.271 74.6111 57.3295 74.7144C57.388 74.8178 57.4172 74.9363 57.4172 75.0701ZM56.5974 75.3376C56.6962 75.3376 56.7698 75.3143 56.8182 75.2677C56.8666 75.2211 56.8908 75.1552 56.8908 75.0701C56.8908 74.985 56.8666 74.9191 56.8182 74.8725C56.7698 74.8259 56.6962 74.8026 56.5974 74.8026H56.316V75.3376H56.5974Z" fill="white"/>
<path d="M59.178 76.5171L58.7363 75.7115H58.6123V76.5171H58.095V74.3831H58.9632C59.1306 74.3831 59.2728 74.4124 59.3898 74.4712C59.5088 74.53 59.5975 74.6111 59.656 74.7144C59.7145 74.8158 59.7437 74.9292 59.7437 75.0549C59.7437 75.1968 59.7034 75.3234 59.6227 75.4349C59.5441 75.5464 59.4271 75.6254 59.2718 75.672L59.7619 76.5171H59.178ZM58.6123 75.3437H58.933C59.0278 75.3437 59.0983 75.3204 59.1447 75.2738C59.1931 75.2272 59.2173 75.1613 59.2173 75.0762C59.2173 74.9951 59.1931 74.9313 59.1447 74.8847C59.0983 74.838 59.0278 74.8147 58.933 74.8147H58.6123V75.3437Z" fill="white"/>
<path d="M61.4813 76.5384C61.2816 76.5384 61.0981 76.4918 60.9307 76.3986C60.7653 76.3053 60.6332 76.1756 60.5344 76.0095C60.4376 75.8412 60.3892 75.6528 60.3892 75.444C60.3892 75.2353 60.4376 75.0478 60.5344 74.8816C60.6332 74.7154 60.7653 74.5857 60.9307 74.4925C61.0981 74.3993 61.2816 74.3527 61.4813 74.3527C61.681 74.3527 61.8635 74.3993 62.0289 74.4925C62.1963 74.5857 62.3274 74.7154 62.4222 74.8816C62.519 75.0478 62.5674 75.2353 62.5674 75.444C62.5674 75.6528 62.519 75.8412 62.4222 76.0095C62.3254 76.1756 62.1943 76.3053 62.0289 76.3986C61.8635 76.4918 61.681 76.5384 61.4813 76.5384ZM61.4813 76.0642C61.6507 76.0642 61.7858 76.0074 61.8867 75.8939C61.9896 75.7804 62.041 75.6305 62.041 75.444C62.041 75.2555 61.9896 75.1056 61.8867 74.9941C61.7858 74.8806 61.6507 74.8239 61.4813 74.8239C61.3099 74.8239 61.1727 74.8796 61.0699 74.9911C60.969 75.1025 60.9186 75.2535 60.9186 75.444C60.9186 75.6325 60.969 75.7835 61.0699 75.897C61.1727 76.0084 61.3099 76.0642 61.4813 76.0642Z" fill="white"/>
<path d="M64.0592 74.3831C64.2831 74.3831 64.4788 74.4276 64.6462 74.5168C64.8136 74.606 64.9426 74.7316 65.0334 74.8938C65.1262 75.0539 65.1726 75.2393 65.1726 75.4501C65.1726 75.6588 65.1262 75.8443 65.0334 76.0064C64.9426 76.1685 64.8125 76.2942 64.6431 76.3834C64.4757 76.4725 64.2811 76.5171 64.0592 76.5171H63.2636V74.3831H64.0592ZM64.026 76.0672C64.2216 76.0672 64.3739 76.0135 64.4828 75.9061C64.5917 75.7987 64.6462 75.6467 64.6462 75.4501C64.6462 75.2535 64.5917 75.1005 64.4828 74.9911C64.3739 74.8816 64.2216 74.8269 64.026 74.8269H63.7809V76.0672H64.026Z" fill="white"/>
<path d="M66.3783 74.3831V75.6599C66.3783 75.7875 66.4096 75.8858 66.4721 75.9547C66.5346 76.0236 66.6264 76.0581 66.7474 76.0581C66.8684 76.0581 66.9612 76.0236 67.0257 75.9547C67.0903 75.8858 67.1225 75.7875 67.1225 75.6599V74.3831H67.6399V75.6568C67.6399 75.8473 67.5995 76.0084 67.5188 76.1402C67.4382 76.2719 67.3293 76.3712 67.1921 76.4381C67.057 76.505 66.9057 76.5384 66.7383 76.5384C66.5709 76.5384 66.4207 76.506 66.2876 76.4411C66.1565 76.3743 66.0526 76.2749 65.976 76.1432C65.8993 76.0095 65.861 75.8473 65.861 75.6568V74.3831H66.3783Z" fill="white"/>
<path d="M68.3238 75.4471C68.3238 75.2363 68.3692 75.0488 68.4599 74.8847C68.5507 74.7185 68.6768 74.5898 68.8381 74.4986C69.0015 74.4054 69.186 74.3587 69.3917 74.3587C69.6438 74.3587 69.8597 74.4256 70.0392 74.5594C70.2187 74.6931 70.3387 74.8755 70.3992 75.1066H69.8304C69.7881 75.0174 69.7275 74.9495 69.6489 74.9029C69.5722 74.8563 69.4845 74.833 69.3857 74.833C69.2264 74.833 69.0973 74.8887 68.9985 75.0002C68.8996 75.1116 68.8502 75.2606 68.8502 75.4471C68.8502 75.6335 68.8996 75.7825 68.9985 75.8939C69.0973 76.0054 69.2264 76.0611 69.3857 76.0611C69.4845 76.0611 69.5722 76.0378 69.6489 75.9912C69.7275 75.9446 69.7881 75.8767 69.8304 75.7875H70.3992C70.3387 76.0186 70.2187 76.201 70.0392 76.3347C69.8597 76.4665 69.6438 76.5323 69.3917 76.5323C69.186 76.5323 69.0015 76.4867 68.8381 76.3955C68.6768 76.3023 68.5507 76.1736 68.4599 76.0095C68.3692 75.8453 68.3238 75.6578 68.3238 75.4471Z" fill="white"/>
<path d="M72.6521 74.3831V74.7995H72.0894V76.5171H71.5721V74.7995H71.0094V74.3831H72.6521Z" fill="white"/>
<path d="M74.0886 76.5384C73.9333 76.5384 73.7942 76.5131 73.6711 76.4624C73.5481 76.4117 73.4493 76.3368 73.3746 76.2375C73.302 76.1381 73.2637 76.0186 73.2597 75.8787H73.8103C73.8184 75.9578 73.8456 76.0186 73.892 76.0611C73.9384 76.1017 73.9989 76.1219 74.0735 76.1219C74.1501 76.1219 74.2106 76.1047 74.255 76.0703C74.2994 76.0338 74.3216 75.9841 74.3216 75.9213C74.3216 75.8686 74.3034 75.825 74.2671 75.7906C74.2328 75.7561 74.1895 75.7277 74.137 75.7055C74.0866 75.6832 74.014 75.6578 73.9192 75.6295C73.7821 75.5869 73.6701 75.5443 73.5834 75.5018C73.4967 75.4592 73.422 75.3964 73.3595 75.3133C73.297 75.2302 73.2657 75.1218 73.2657 74.988C73.2657 74.7894 73.3373 74.6344 73.4805 74.5229C73.6237 74.4094 73.8103 74.3527 74.0402 74.3527C74.2742 74.3527 74.4627 74.4094 74.6059 74.5229C74.7491 74.6344 74.8258 74.7904 74.8359 74.9911H74.2762C74.2721 74.9222 74.2469 74.8684 74.2006 74.8299C74.1542 74.7894 74.0947 74.7691 74.0221 74.7691C73.9595 74.7691 73.9091 74.7864 73.8708 74.8208C73.8325 74.8532 73.8133 74.9009 73.8133 74.9637C73.8133 75.0326 73.8456 75.0863 73.9101 75.1248C73.9747 75.1633 74.0755 75.2049 74.2127 75.2495C74.3498 75.2961 74.4607 75.3407 74.5454 75.3832C74.6322 75.4258 74.7068 75.4876 74.7693 75.5687C74.8318 75.6497 74.8631 75.7541 74.8631 75.8818C74.8631 76.0034 74.8318 76.1138 74.7693 76.2131C74.7088 76.3124 74.6201 76.3915 74.5031 76.4503C74.3861 76.509 74.2479 76.5384 74.0886 76.5384Z" fill="white"/>
</svg>
