<svg width="101" height="101" viewBox="0 0 101 101" fill="none" xmlns="http://www.w3.org/2000/svg">
<rect x="0.799805" y="0.355133" width="100" height="100" rx="10" fill="#0BB5FF"/>
<path d="M19.5508 72.2308C19.5508 70.9394 19.5508 69.6326 19.5508 68.3104C19.5508 66.9882 19.5508 65.6814 19.5508 64.39C20.0281 64.39 20.5093 64.39 20.9944 64.39C21.4794 64.39 21.9606 64.39 22.438 64.39C22.6613 65.1741 22.8807 65.9697 23.0963 66.7768C23.3195 67.5763 23.539 68.368 23.7545 69.1521C23.9701 68.368 24.1857 67.5763 24.4013 66.7768C24.6246 65.9697 24.844 65.1741 25.0596 64.39C25.5369 64.39 26.0143 64.39 26.4916 64.39C26.969 64.39 27.4425 64.39 27.9121 64.39C27.9198 65.6814 27.9275 66.9882 27.9352 68.3104C27.9429 69.6326 27.9506 70.9394 27.9583 72.2308C27.6349 72.2308 27.3077 72.2308 26.9767 72.2308C26.6533 72.2308 26.3299 72.2308 26.0066 72.2308C26.0066 71.3545 26.0066 70.4705 26.0066 69.5788C26.0066 68.6794 26.0066 67.7915 26.0066 66.9152C25.7756 67.7915 25.5408 68.6794 25.3021 69.5788C25.0634 70.4705 24.8286 71.3545 24.5976 72.2308C24.3127 72.2308 24.0202 72.2308 23.7199 72.2308C23.4273 72.2308 23.1348 72.2308 22.8422 72.2308C22.6112 71.3698 22.3802 70.5012 22.1493 69.6249C21.9183 68.7409 21.6873 67.8684 21.4563 67.0074C21.4563 67.8684 21.4563 68.7409 21.4563 69.6249C21.4563 70.5012 21.4563 71.3698 21.4563 72.2308C21.1484 72.2308 20.8327 72.2308 20.5093 72.2308C20.186 72.2308 19.8664 72.2308 19.5508 72.2308Z" fill="white"/>
<path d="M30.3882 72.2308C30.3882 70.9394 30.3882 69.6326 30.3882 68.3104C30.3882 66.9882 30.3882 65.6814 30.3882 64.39C31.1658 64.39 31.9511 64.39 32.7441 64.39C33.5371 64.39 34.3225 64.39 35.1001 64.39C35.1001 64.6821 35.1001 64.9819 35.1001 65.2894C35.1001 65.5969 35.1001 65.8967 35.1001 66.1888C34.6535 66.1888 34.2031 66.1888 33.7489 66.1888C33.3023 66.1888 32.8558 66.1888 32.4092 66.1888C32.4092 66.3809 32.4092 66.5731 32.4092 66.7653C32.4092 66.9498 32.4092 67.1381 32.4092 67.3303C32.8173 67.3303 33.2292 67.3303 33.6449 67.3303C34.0607 67.3303 34.4687 67.3303 34.8691 67.3303C34.8691 67.6147 34.8691 67.903 34.8691 68.1951C34.8691 68.4872 34.8691 68.7793 34.8691 69.0714C34.4687 69.0714 34.0607 69.0714 33.6449 69.0714C33.2292 69.0714 32.8173 69.0714 32.4092 69.0714C32.4092 69.2943 32.4092 69.5211 32.4092 69.7517C32.4092 69.9823 32.4092 70.2091 32.4092 70.432C32.8558 70.432 33.3023 70.432 33.7489 70.432C34.2031 70.432 34.6535 70.432 35.1001 70.432C35.1001 70.7241 35.1001 71.0239 35.1001 71.3314C35.1001 71.6389 35.1001 71.9387 35.1001 72.2308C34.3225 72.2308 33.5371 72.2308 32.7441 72.2308C31.9511 72.2308 31.1658 72.2308 30.3882 72.2308Z" fill="white"/>
<path d="M37.4135 72.2308C37.4135 70.9394 37.4135 69.6326 37.4135 68.3104C37.4135 66.9882 37.4135 65.6814 37.4135 64.39C37.8755 64.39 38.3413 64.39 38.8109 64.39C39.2806 64.39 39.7464 64.39 40.2084 64.39C40.7781 64.39 41.3016 64.4899 41.779 64.6898C42.2563 64.882 42.6721 65.1549 43.0263 65.5085C43.3804 65.8621 43.6537 66.2772 43.8462 66.7538C44.0464 67.2227 44.1465 67.7377 44.1465 68.2989C44.1465 68.86 44.0464 69.3789 43.8462 69.8555C43.6537 70.3321 43.3804 70.751 43.0263 71.1123C42.6721 71.4659 42.2563 71.7427 41.779 71.9425C41.3016 72.1347 40.7781 72.2308 40.2084 72.2308C39.7464 72.2308 39.2806 72.2308 38.8109 72.2308C38.3413 72.2308 37.8755 72.2308 37.4135 72.2308ZM40.2084 66.2118C40.0852 66.2118 39.9581 66.2118 39.8272 66.2118C39.6964 66.2118 39.5655 66.2118 39.4346 66.2118C39.4346 66.9037 39.4346 67.6032 39.4346 68.3104C39.4346 69.0176 39.4346 69.7171 39.4346 70.409C39.5655 70.409 39.6964 70.409 39.8272 70.409C39.9581 70.409 40.0852 70.409 40.2084 70.409C40.5933 70.409 40.9282 70.3167 41.2131 70.1322C41.498 69.9477 41.7174 69.6979 41.8714 69.3827C42.0254 69.0599 42.1024 68.6986 42.1024 68.2989C42.1024 67.8991 42.0254 67.5417 41.8714 67.2265C41.7174 66.9113 41.498 66.6654 41.2131 66.4886C40.9282 66.3041 40.5933 66.2118 40.2084 66.2118Z" fill="white"/>
<path d="M46.2335 72.2308C46.2335 70.9394 46.2335 69.6326 46.2335 68.3104C46.2335 66.9882 46.2335 65.6814 46.2335 64.39C46.5723 64.39 46.911 64.39 47.2498 64.39C47.5886 64.39 47.9235 64.39 48.2545 64.39C48.2545 65.6814 48.2545 66.9882 48.2545 68.3104C48.2545 69.6326 48.2545 70.9394 48.2545 72.2308C47.9235 72.2308 47.5886 72.2308 47.2498 72.2308C46.911 72.2308 46.5723 72.2308 46.2335 72.2308Z" fill="white"/>
<path d="M55.9048 69.867C55.9048 70.4512 55.7508 70.9278 55.4429 71.2968C55.1426 71.6581 54.7345 71.9195 54.2187 72.0809C53.7105 72.2423 53.1408 72.3115 52.5095 72.2884C51.8781 72.2731 51.2352 72.177 50.5808 72.0002C50.5808 71.6696 50.5808 71.3391 50.5808 71.0085C50.5808 70.678 50.5808 70.3475 50.5808 70.0169C51.1813 70.2322 51.728 70.3667 52.2207 70.4205C52.7135 70.4743 53.1061 70.4551 53.3987 70.3628C53.6913 70.2629 53.8376 70.0976 53.8376 69.867C53.8376 69.7056 53.7567 69.5749 53.595 69.475C53.4334 69.3674 53.2216 69.2713 52.9599 69.1867C52.7058 69.1022 52.4363 69.0061 52.1514 68.8985C51.8666 68.7831 51.5933 68.6409 51.3315 68.4718C51.0774 68.295 50.8695 68.0682 50.7078 67.7915C50.5462 67.5071 50.4653 67.1535 50.4653 66.7307C50.4653 66.208 50.6039 65.766 50.8811 65.4047C51.1583 65.0434 51.5317 64.7705 52.0013 64.586C52.4787 64.4015 53.0176 64.3093 53.6181 64.3093C54.2264 64.3093 54.8539 64.4015 55.5006 64.586C55.5006 64.9166 55.5006 65.2471 55.5006 65.5776C55.5006 65.9082 55.5006 66.2387 55.5006 66.5693C54.9617 66.3387 54.4651 66.2003 54.0108 66.1542C53.5642 66.1004 53.2062 66.1234 52.9368 66.2234C52.6673 66.3156 52.5326 66.4693 52.5326 66.6846C52.5326 66.8383 52.6134 66.9652 52.7751 67.0651C52.9368 67.165 53.1446 67.2573 53.3987 67.3418C53.6605 67.4187 53.9338 67.5148 54.2187 67.6301C54.5036 67.7377 54.773 67.8838 55.0271 68.0682C55.2889 68.2451 55.5006 68.4795 55.6623 68.7716C55.824 69.056 55.9048 69.4212 55.9048 69.867Z" fill="white"/>
<path d="M59.9017 72.2308C59.5706 72.2308 59.2357 72.2308 58.8969 72.2308C58.5582 72.2308 58.2194 72.2308 57.8806 72.2308C57.8806 70.9394 57.8806 69.6326 57.8806 68.3104C57.8806 66.9882 57.8806 65.6814 57.8806 64.39C58.2194 64.39 58.5582 64.39 58.8969 64.39C59.2357 64.39 59.5706 64.39 59.9017 64.39C59.9017 64.8589 59.9017 65.3317 59.9017 65.8083C59.9017 66.2772 59.9017 66.7461 59.9017 67.215C60.3097 67.215 60.7217 67.215 61.1374 67.215C61.5532 67.215 61.9612 67.215 62.3616 67.215C62.3616 66.7461 62.3616 66.2772 62.3616 65.8083C62.3616 65.3317 62.3616 64.8589 62.3616 64.39C62.7004 64.39 63.0391 64.39 63.3779 64.39C63.7166 64.39 64.0516 64.39 64.3826 64.39C64.3826 65.6814 64.3826 66.9882 64.3826 68.3104C64.3826 69.6326 64.3826 70.9394 64.3826 72.2308C64.0516 72.2308 63.7166 72.2308 63.3779 72.2308C63.0391 72.2308 62.7004 72.2308 62.3616 72.2308C62.3616 71.7081 62.3616 71.1815 62.3616 70.6511C62.3616 70.113 62.3616 69.5864 62.3616 69.0714C61.9612 69.0714 61.5532 69.0714 61.1374 69.0714C60.7217 69.0714 60.3097 69.0714 59.9017 69.0714C59.9017 69.5864 59.9017 70.113 59.9017 70.6511C59.9017 71.1815 59.9017 71.7081 59.9017 72.2308Z" fill="white"/>
<path d="M70.3113 72.4153C69.7493 72.4153 69.2296 72.3153 68.7522 72.1155C68.2749 71.9079 67.863 71.6197 67.5165 71.2507C67.17 70.8817 66.9006 70.4474 66.7081 69.9477C66.5156 69.4404 66.4194 68.8908 66.4194 68.2989C66.4194 67.707 66.5156 67.1612 66.7081 66.6615C66.9006 66.1619 67.17 65.7314 67.5165 65.3701C67.863 65.0011 68.2749 64.7167 68.7522 64.5168C69.2296 64.3093 69.7493 64.2055 70.3113 64.2055C70.8734 64.2055 71.3892 64.3093 71.8589 64.5168C72.3362 64.7167 72.7481 65.0011 73.0946 65.3701C73.4487 65.7314 73.7221 66.1619 73.9145 66.6615C74.107 67.1612 74.2033 67.707 74.2033 68.2989C74.2033 68.8908 74.107 69.4404 73.9145 69.9477C73.7221 70.4474 73.4487 70.8817 73.0946 71.2507C72.7481 71.6197 72.3362 71.9079 71.8589 72.1155C71.3892 72.3153 70.8734 72.4153 70.3113 72.4153ZM70.3113 70.5473C70.6886 70.5473 71.0119 70.4551 71.2814 70.2706C71.5509 70.0784 71.7588 69.8132 71.9051 69.475C72.059 69.1368 72.136 68.7447 72.136 68.2989C72.136 67.853 72.059 67.4648 71.9051 67.1343C71.7588 66.8037 71.5509 66.5462 71.2814 66.3617C71.0119 66.1695 70.6886 66.0735 70.3113 66.0735C69.9418 66.0735 69.6184 66.1657 69.3412 66.3502C69.0717 66.5347 68.86 66.796 68.706 67.1343C68.5597 67.4648 68.4866 67.853 68.4866 68.2989C68.4866 68.7447 68.5597 69.1368 68.706 69.475C68.86 69.8132 69.0717 70.0784 69.3412 70.2706C69.6184 70.4551 69.9418 70.5473 70.3113 70.5473Z" fill="white"/>
<path d="M76.2396 72.2308C76.2396 70.9394 76.2396 69.6326 76.2396 68.3104C76.2396 66.9882 76.2396 65.6814 76.2396 64.39C76.717 64.39 77.1943 64.39 77.6717 64.39C78.1567 64.39 78.6341 64.39 79.1038 64.39C79.6966 64.39 80.2124 64.5053 80.6513 64.7359C81.0901 64.9588 81.4328 65.274 81.6791 65.6814C81.9255 66.0888 82.0487 66.5654 82.0487 67.1112C82.0487 67.6493 81.9255 68.1221 81.6791 68.5295C81.4405 68.9369 81.1094 69.2521 80.6859 69.475C80.2702 69.6979 79.7967 69.8094 79.2654 69.8094C79.0961 69.8094 78.9267 69.8094 78.7573 69.8094C78.5956 69.8094 78.4301 69.8094 78.2607 69.8094C78.2607 70.2091 78.2607 70.6127 78.2607 71.0201C78.2607 71.4275 78.2607 71.8311 78.2607 72.2308C77.9296 72.2308 77.5947 72.2308 77.2559 72.2308C76.9172 72.2308 76.5784 72.2308 76.2396 72.2308ZM79.1038 66.2003C78.9652 66.2003 78.8227 66.2003 78.6764 66.2003C78.5379 66.2003 78.3993 66.2003 78.2607 66.2003C78.2607 66.5078 78.2607 66.8191 78.2607 67.1343C78.2607 67.4418 78.2607 67.7492 78.2607 68.0567C78.4147 68.0567 78.5725 68.0567 78.7342 68.0567C78.9036 68.0567 79.0653 68.0567 79.2192 68.0567C79.4579 68.0567 79.6504 67.9683 79.7967 67.7915C79.9507 67.6147 80.0277 67.3956 80.0277 67.1343C80.0277 66.8652 79.9468 66.6423 79.7851 66.4655C79.6235 66.2887 79.3963 66.2003 79.1038 66.2003Z" fill="white"/>
<path d="M26.0896 75.1858C26.0896 75.3124 26.0605 75.4287 26.0023 75.5345C25.9441 75.6383 25.8547 75.7224 25.7341 75.7867C25.6136 75.851 25.4639 75.8832 25.2851 75.8832H24.9546V76.6677H24.4214V74.4822H25.2851C25.4597 74.4822 25.6073 74.5123 25.7279 74.5725C25.8485 74.6327 25.9389 74.7157 25.9992 74.8216C26.0595 74.9274 26.0896 75.0489 26.0896 75.1858ZM25.2446 75.4598C25.3464 75.4598 25.4223 75.4359 25.4722 75.3882C25.5221 75.3405 25.547 75.273 25.547 75.1858C25.547 75.0987 25.5221 75.0312 25.4722 74.9835C25.4223 74.9357 25.3464 74.9119 25.2446 74.9119H24.9546V75.4598H25.2446Z" fill="white"/>
<path d="M27.312 74.4822V75.7898C27.312 75.9206 27.3442 76.0212 27.4087 76.0918C27.4731 76.1624 27.5677 76.1976 27.6924 76.1976C27.8172 76.1976 27.9128 76.1624 27.9793 76.0918C28.0458 76.0212 28.0791 75.9206 28.0791 75.7898V74.4822H28.6123V75.7867C28.6123 75.9818 28.5707 76.1468 28.4876 76.2817C28.4044 76.4166 28.2922 76.5183 28.1508 76.5868C28.0115 76.6553 27.8556 76.6895 27.6831 76.6895C27.5105 76.6895 27.3557 76.6563 27.2185 76.5899C27.0833 76.5214 26.9763 76.4197 26.8973 76.2848C26.8183 76.1478 26.7788 75.9818 26.7788 75.7867V74.4822H27.312Z" fill="white"/>
<path d="M30.524 76.6677L30.0687 75.8427H29.9409V76.6677H29.4077V74.4822H30.3026C30.4751 74.4822 30.6217 74.5123 30.7422 74.5725C30.8649 74.6327 30.9564 74.7157 31.0166 74.8216C31.0769 74.9254 31.1071 75.0416 31.1071 75.1703C31.1071 75.3156 31.0655 75.4453 30.9823 75.5594C30.9013 75.6736 30.7807 75.7545 30.6206 75.8023L31.1258 76.6677H30.524ZM29.9409 75.466H30.2714C30.3691 75.466 30.4419 75.4422 30.4897 75.3944C30.5396 75.3467 30.5645 75.2792 30.5645 75.1921C30.5645 75.109 30.5396 75.0437 30.4897 74.9959C30.4419 74.9482 30.3691 74.9243 30.2714 74.9243H29.9409V75.466Z" fill="white"/>
<path d="M31.7723 75.5719C31.7723 75.356 31.8191 75.164 31.9126 74.9959C32.0062 74.8257 32.1361 74.6939 32.3024 74.6005C32.4708 74.5051 32.661 74.4573 32.873 74.4573C33.1329 74.4573 33.3553 74.5258 33.5403 74.6628C33.7253 74.7998 33.849 74.9866 33.9114 75.2232H33.3252C33.2815 75.1319 33.2192 75.0623 33.1381 75.0146C33.0591 74.9669 32.9687 74.943 32.8668 74.943C32.7026 74.943 32.5695 75.0001 32.4677 75.1142C32.3658 75.2284 32.3149 75.3809 32.3149 75.5719C32.3149 75.7628 32.3658 75.9154 32.4677 76.0295C32.5695 76.1437 32.7026 76.2008 32.8668 76.2008C32.9687 76.2008 33.0591 76.1769 33.1381 76.1292C33.2192 76.0814 33.2815 76.0119 33.3252 75.9206H33.9114C33.849 76.1572 33.7253 76.344 33.5403 76.481C33.3553 76.6159 33.1329 76.6833 32.873 76.6833C32.661 76.6833 32.4708 76.6366 32.3024 76.5432C32.1361 76.4477 32.0062 76.316 31.9126 76.1478C31.8191 75.9797 31.7723 75.7877 31.7723 75.5719Z" fill="white"/>
<path d="M36.5547 74.4822V76.6677H36.0215V75.768H35.1921V76.6677H34.6589V74.4822H35.1921V75.3384H36.0215V74.4822H36.5547Z" fill="white"/>
<path d="M38.7232 76.2817H37.9063L37.7753 76.6677H37.2172L38.0092 74.4822H38.6266L39.4186 76.6677H38.8542L38.7232 76.2817ZM38.5861 75.8708L38.3148 75.0706L38.0466 75.8708H38.5861Z" fill="white"/>
<path d="M40.8726 76.6895C40.7126 76.6895 40.5691 76.6636 40.4423 76.6117C40.3155 76.5598 40.2137 76.483 40.1367 76.3813C40.0619 76.2796 40.0224 76.1572 40.0182 76.014H40.5858C40.5941 76.0949 40.6221 76.1572 40.6699 76.2008C40.7178 76.2423 40.7801 76.263 40.857 76.263C40.936 76.263 40.9984 76.2454 41.0441 76.2101C41.0899 76.1727 41.1127 76.1219 41.1127 76.0576C41.1127 76.0036 41.094 75.959 41.0566 75.9237C41.0213 75.8884 40.9766 75.8593 40.9225 75.8365C40.8705 75.8137 40.7957 75.7877 40.698 75.7587C40.5566 75.7151 40.4413 75.6715 40.3519 75.6279C40.2625 75.5843 40.1856 75.52 40.1211 75.4349C40.0567 75.3498 40.0245 75.2388 40.0245 75.1018C40.0245 74.8984 40.0983 74.7396 40.2459 74.6255C40.3935 74.5092 40.5858 74.4511 40.8227 74.4511C41.0639 74.4511 41.2582 74.5092 41.4058 74.6255C41.5534 74.7396 41.6324 74.8994 41.6428 75.1049H41.066C41.0618 75.0343 41.0358 74.9793 40.988 74.9399C40.9402 74.8984 40.8789 74.8776 40.804 74.8776C40.7396 74.8776 40.6876 74.8953 40.6481 74.9306C40.6086 74.9638 40.5889 75.0125 40.5889 75.0769C40.5889 75.1474 40.6221 75.2024 40.6887 75.2419C40.7552 75.2813 40.8591 75.3239 41.0005 75.3695C41.1418 75.4173 41.2562 75.4629 41.3435 75.5065C41.4329 75.5501 41.5098 75.6134 41.5742 75.6964C41.6387 75.7794 41.6709 75.8863 41.6709 76.0171C41.6709 76.1416 41.6387 76.2547 41.5742 76.3564C41.5119 76.4581 41.4204 76.5391 41.2998 76.5993C41.1792 76.6594 41.0368 76.6895 40.8726 76.6895Z" fill="white"/>
<path d="M42.9532 74.9088V75.3508H43.6672V75.7618H42.9532V76.2412H43.7608V76.6677H42.42V74.4822H43.7608V74.9088H42.9532Z" fill="white"/>
<path d="M47.4868 74.4822L46.7291 75.9455V76.6677H46.1959V75.9455L45.4381 74.4822H46.0431L46.4671 75.3975L46.8881 74.4822H47.4868Z" fill="white"/>
<path d="M49.1578 76.6895C48.952 76.6895 48.7628 76.6418 48.5903 76.5463C48.4198 76.4509 48.2837 76.318 48.1818 76.1478C48.082 75.9756 48.0322 75.7825 48.0322 75.5688C48.0322 75.355 48.082 75.163 48.1818 74.9928C48.2837 74.8226 48.4198 74.6898 48.5903 74.5943C48.7628 74.4988 48.952 74.4511 49.1578 74.4511C49.3636 74.4511 49.5517 74.4988 49.7222 74.5943C49.8947 74.6898 50.0299 74.8226 50.1276 74.9928C50.2274 75.163 50.2772 75.355 50.2772 75.5688C50.2772 75.7825 50.2274 75.9756 50.1276 76.1478C50.0278 76.318 49.8927 76.4509 49.7222 76.5463C49.5517 76.6418 49.3636 76.6895 49.1578 76.6895ZM49.1578 76.2039C49.3324 76.2039 49.4717 76.1458 49.5757 76.0295C49.6817 75.9133 49.7347 75.7597 49.7347 75.5688C49.7347 75.3757 49.6817 75.2222 49.5757 75.108C49.4717 74.9918 49.3324 74.9337 49.1578 74.9337C48.9811 74.9337 48.8398 74.9907 48.7337 75.1049C48.6298 75.219 48.5778 75.3737 48.5778 75.5688C48.5778 75.7618 48.6298 75.9164 48.7337 76.0326C48.8398 76.1468 48.9811 76.2039 49.1578 76.2039Z" fill="white"/>
<path d="M51.5187 74.4822V75.7898C51.5187 75.9206 51.5509 76.0212 51.6154 76.0918C51.6798 76.1624 51.7744 76.1976 51.8991 76.1976C52.0238 76.1976 52.1195 76.1624 52.186 76.0918C52.2525 76.0212 52.2858 75.9206 52.2858 75.7898V74.4822H52.819V75.7867C52.819 75.9818 52.7774 76.1468 52.6942 76.2817C52.6111 76.4166 52.4988 76.5183 52.3575 76.5868C52.2182 76.6553 52.0623 76.6895 51.8898 76.6895C51.7172 76.6895 51.5623 76.6563 51.4251 76.5899C51.29 76.5214 51.183 76.4197 51.104 76.2848C51.025 76.1478 50.9855 75.9818 50.9855 75.7867V74.4822H51.5187Z" fill="white"/>
<path d="M54.7307 76.6677L54.2754 75.8427H54.1476V76.6677H53.6144V74.4822H54.5093C54.6818 74.4822 54.8284 74.5123 54.9489 74.5725C55.0716 74.6327 55.163 74.7157 55.2233 74.8216C55.2836 74.9254 55.3138 75.0416 55.3138 75.1703C55.3138 75.3156 55.2722 75.4453 55.189 75.5594C55.108 75.6736 54.9874 75.7545 54.8273 75.8023L55.3325 76.6677H54.7307ZM54.1476 75.466H54.4781C54.5758 75.466 54.6485 75.4422 54.6964 75.3944C54.7463 75.3467 54.7712 75.2792 54.7712 75.1921C54.7712 75.109 54.7463 75.0437 54.6964 74.9959C54.6485 74.9482 54.5758 74.9243 54.4781 74.9243H54.1476V75.466Z" fill="white"/>
<path d="M58.8194 75.1858C58.8194 75.3124 58.7903 75.4287 58.7321 75.5345C58.6739 75.6383 58.5845 75.7224 58.4639 75.7867C58.3433 75.851 58.1937 75.8832 58.0149 75.8832H57.6844V76.6677H57.1512V74.4822H58.0149C58.1895 74.4822 58.3371 74.5123 58.4577 74.5725C58.5783 74.6327 58.6687 74.7157 58.729 74.8216C58.7893 74.9274 58.8194 75.0489 58.8194 75.1858ZM57.9744 75.4598C58.0762 75.4598 58.1521 75.4359 58.202 75.3882C58.2519 75.3405 58.2768 75.273 58.2768 75.1858C58.2768 75.0987 58.2519 75.0312 58.202 74.9835C58.1521 74.9357 58.0762 74.9119 57.9744 74.9119H57.6844V75.4598H57.9744Z" fill="white"/>
<path d="M60.6342 76.6677L60.179 75.8427H60.0511V76.6677H59.5179V74.4822H60.4129C60.5854 74.4822 60.7319 74.5123 60.8525 74.5725C60.9752 74.6327 61.0666 74.7157 61.1269 74.8216C61.1872 74.9254 61.2173 75.0416 61.2173 75.1703C61.2173 75.3156 61.1758 75.4453 61.0926 75.5594C61.0115 75.6736 60.891 75.7545 60.7309 75.8023L61.2361 76.6677H60.6342ZM60.0511 75.466H60.3817C60.4794 75.466 60.5521 75.4422 60.5999 75.3944C60.6498 75.3467 60.6748 75.2792 60.6748 75.1921C60.6748 75.109 60.6498 75.0437 60.5999 74.9959C60.5521 74.9482 60.4794 74.9243 60.3817 74.9243H60.0511V75.466Z" fill="white"/>
<path d="M63.0083 76.6895C62.8025 76.6895 62.6133 76.6418 62.4407 76.5463C62.2703 76.4509 62.1341 76.318 62.0323 76.1478C61.9325 75.9756 61.8826 75.7825 61.8826 75.5688C61.8826 75.355 61.9325 75.163 62.0323 74.9928C62.1341 74.8226 62.2703 74.6898 62.4407 74.5943C62.6133 74.4988 62.8025 74.4511 63.0083 74.4511C63.2141 74.4511 63.4022 74.4988 63.5726 74.5943C63.7452 74.6898 63.8803 74.8226 63.978 74.9928C64.0778 75.163 64.1277 75.355 64.1277 75.5688C64.1277 75.7825 64.0778 75.9756 63.978 76.1478C63.8782 76.318 63.7431 76.4509 63.5726 76.5463C63.4022 76.6418 63.2141 76.6895 63.0083 76.6895ZM63.0083 76.2039C63.1829 76.2039 63.3222 76.1458 63.4261 76.0295C63.5321 75.9133 63.5851 75.7597 63.5851 75.5688C63.5851 75.3757 63.5321 75.2222 63.4261 75.108C63.3222 74.9918 63.1829 74.9337 63.0083 74.9337C62.8316 74.9337 62.6902 74.9907 62.5842 75.1049C62.4802 75.219 62.4283 75.3737 62.4283 75.5688C62.4283 75.7618 62.4802 75.9164 62.5842 76.0326C62.6902 76.1468 62.8316 76.2039 63.0083 76.2039Z" fill="white"/>
<path d="M65.6654 74.4822C65.8961 74.4822 66.0977 74.5279 66.2703 74.6192C66.4428 74.7105 66.5759 74.8392 66.6694 75.0053C66.765 75.1692 66.8128 75.3591 66.8128 75.575C66.8128 75.7888 66.765 75.9787 66.6694 76.1447C66.5759 76.3108 66.4418 76.4394 66.2672 76.5308C66.0946 76.6221 65.894 76.6677 65.6654 76.6677H64.8453V74.4822H65.6654ZM65.6311 76.207C65.8327 76.207 65.9896 76.152 66.1019 76.042C66.2142 75.932 66.2703 75.7763 66.2703 75.575C66.2703 75.3737 66.2142 75.217 66.1019 75.1049C65.9896 74.9928 65.8327 74.9368 65.6311 74.9368H65.3785V76.207H65.6311Z" fill="white"/>
<path d="M68.0556 74.4822V75.7898C68.0556 75.9206 68.0879 76.0212 68.1523 76.0918C68.2167 76.1624 68.3113 76.1976 68.436 76.1976C68.5608 76.1976 68.6564 76.1624 68.7229 76.0918C68.7894 76.0212 68.8227 75.9206 68.8227 75.7898V74.4822H69.3559V75.7867C69.3559 75.9818 69.3143 76.1468 69.2312 76.2817C69.148 76.4166 69.0358 76.5183 68.8944 76.5868C68.7551 76.6553 68.5992 76.6895 68.4267 76.6895C68.2542 76.6895 68.0993 76.6563 67.9621 76.5899C67.827 76.5214 67.7199 76.4197 67.6409 76.2848C67.5619 76.1478 67.5224 75.9818 67.5224 75.7867V74.4822H68.0556Z" fill="white"/>
<path d="M70.0609 75.5719C70.0609 75.356 70.1076 75.164 70.2012 74.9959C70.2947 74.8257 70.4246 74.6939 70.591 74.6005C70.7593 74.5051 70.9495 74.4573 71.1616 74.4573C71.4214 74.4573 71.6439 74.5258 71.8289 74.6628C72.0139 74.7998 72.1376 74.9866 72.1999 75.2232H71.6137C71.5701 75.1319 71.5077 75.0623 71.4266 75.0146C71.3476 74.9669 71.2572 74.943 71.1553 74.943C70.9911 74.943 70.8581 75.0001 70.7562 75.1142C70.6544 75.2284 70.6034 75.3809 70.6034 75.5719C70.6034 75.7628 70.6544 75.9154 70.7562 76.0295C70.8581 76.1437 70.9911 76.2008 71.1553 76.2008C71.2572 76.2008 71.3476 76.1769 71.4266 76.1292C71.5077 76.0814 71.5701 76.0119 71.6137 75.9206H72.1999C72.1376 76.1572 72.0139 76.344 71.8289 76.481C71.6439 76.6159 71.4214 76.6833 71.1616 76.6833C70.9495 76.6833 70.7593 76.6366 70.591 76.5432C70.4246 76.4477 70.2947 76.316 70.2012 76.1478C70.1076 75.9797 70.0609 75.7877 70.0609 75.5719Z" fill="white"/>
<path d="M74.5221 74.4822V74.9088H73.9421V76.6677H73.4089V74.9088H72.8289V74.4822H74.5221Z" fill="white"/>
<path d="M76.0027 76.6895C75.8426 76.6895 75.6992 76.6636 75.5724 76.6117C75.4456 76.5598 75.3437 76.483 75.2668 76.3813C75.1919 76.2796 75.1525 76.1572 75.1483 76.014H75.7158C75.7241 76.0949 75.7522 76.1572 75.8 76.2008C75.8478 76.2423 75.9102 76.263 75.9871 76.263C76.0661 76.263 76.1284 76.2454 76.1742 76.2101C76.2199 76.1727 76.2428 76.1219 76.2428 76.0576C76.2428 76.0036 76.2241 75.959 76.1866 75.9237C76.1513 75.8884 76.1066 75.8593 76.0526 75.8365C76.0006 75.8137 75.9258 75.7877 75.8281 75.7587C75.6867 75.7151 75.5713 75.6715 75.4819 75.6279C75.3926 75.5843 75.3156 75.52 75.2512 75.4349C75.1868 75.3498 75.1545 75.2388 75.1545 75.1018C75.1545 74.8984 75.2283 74.7396 75.3759 74.6255C75.5235 74.5092 75.7158 74.4511 75.9528 74.4511C76.1939 74.4511 76.3883 74.5092 76.5359 74.6255C76.6835 74.7396 76.7625 74.8994 76.7729 75.1049H76.196C76.1918 75.0343 76.1659 74.9793 76.118 74.9399C76.0702 74.8984 76.0089 74.8776 75.9341 74.8776C75.8696 74.8776 75.8177 74.8953 75.7782 74.9306C75.7387 74.9638 75.7189 75.0125 75.7189 75.0769C75.7189 75.1474 75.7522 75.2024 75.8187 75.2419C75.8852 75.2813 75.9892 75.3239 76.1305 75.3695C76.2719 75.4173 76.3862 75.4629 76.4735 75.5065C76.5629 75.5501 76.6398 75.6134 76.7043 75.6964C76.7687 75.7794 76.8009 75.8863 76.8009 76.0171C76.8009 76.1416 76.7687 76.2547 76.7043 76.3564C76.6419 76.4581 76.5504 76.5391 76.4299 76.5993C76.3093 76.6594 76.1669 76.6895 76.0027 76.6895Z" fill="white"/>
<g clip-path="url(#clip0_1812_92)">
<path d="M65.7998 39.8161C65.7998 37.2761 63.6365 35.1281 61.088 35.1281C58.392 35.1281 56.245 37.2761 56.245 39.8161C56.245 42.2172 57.9823 44.0957 60.2767 44.4959V49.4615C60.2767 53.3409 57.0645 56.4118 53.1639 56.4118C49.3945 56.4118 46.1576 53.3328 46.1576 49.4615V43.8343C48.0424 43.5648 49.8042 42.5031 51.4103 40.6164C51.6889 40.3469 51.82 40.0856 51.6889 39.6772C53.8359 37.0065 55.0323 33.2578 55.0323 30.3095C55.0323 25.891 53.0164 25.4908 49.8042 24.6823C49.5174 24.2902 49.1076 24.0207 48.7225 24.0207C47.9113 24.0207 47.3704 24.5516 47.3704 25.2295C47.3704 25.891 47.9031 26.5607 48.7225 26.5607C48.9765 26.5607 49.2388 26.4219 49.3863 26.1524C52.5985 26.9609 53.5409 27.0916 53.5409 30.3095C53.5409 32.8494 52.3445 36.1898 50.4515 38.7462C50.1975 38.7462 49.9189 38.8768 49.6403 39.1382C48.7225 40.2163 47.2147 41.4168 45.4857 41.4168C43.7321 41.4168 42.1178 40.2244 41.1754 39.1382C41.0443 38.8687 40.6427 38.7462 40.3641 38.7462C38.4794 36.3287 37.4059 32.8494 37.4059 30.3095C37.4059 27.0916 38.2172 26.9691 41.4376 26.1524C41.7162 26.4219 41.8473 26.5607 42.2489 26.5607C42.9126 26.5607 43.4698 25.891 43.4698 25.2295C43.4698 24.5516 42.9126 24.0207 42.2489 24.0207C41.7162 24.0207 41.3065 24.2902 41.0525 24.6823C37.8156 25.4908 35.7998 25.891 35.7998 30.3095C35.7998 33.2578 36.9962 37.0065 39.1677 39.6772C39.1677 40.0856 39.1677 40.3469 39.4463 40.6164C41.0525 42.4949 42.7897 43.5648 44.6744 43.8343V49.4615C44.6744 54.1413 48.4439 58.0289 53.2868 58.0289C57.9823 58.0289 61.7517 54.1413 61.7517 49.4615V44.4959C64.0462 44.0957 65.7998 42.2172 65.7998 39.8161ZM61.088 43.0339C59.3344 43.0339 57.8512 41.5638 57.8512 39.8161C57.8512 38.2153 59.3262 36.737 61.088 36.737C62.6941 36.737 64.1773 38.2071 64.1773 39.8161C64.1691 41.5557 62.6941 43.0339 61.088 43.0339ZM61.088 37.5374C62.2844 37.5374 63.3578 38.6073 63.3578 39.8161C63.3578 41.1473 62.2844 42.2172 61.088 42.2172C59.7359 42.2172 58.6706 41.1473 58.6706 39.8161C58.6624 38.6073 59.7359 37.5374 61.088 37.5374Z" fill="white"/>
</g>
<defs>
<clipPath id="clip0_1812_92">
<rect width="30" height="34" fill="white" transform="translate(35.7998 24.0207)"/>
</clipPath>
</defs>
</svg>
