<svg width="101" height="101" viewBox="0 0 101 101" fill="none" xmlns="http://www.w3.org/2000/svg">
<rect x="0.100098" y="0.355133" width="100" height="100" rx="10" fill="#8655D3"/>
<path d="M34.2081 58.8271L33.9201 59.7151C33.5041 59.7471 33.1921 59.7631 32.9841 59.7631C32.0241 59.7631 31.2401 59.3551 30.6321 58.5391C30.0401 57.7391 29.7441 56.6911 29.7441 55.3951C29.7441 54.6111 29.9201 53.1311 30.2721 50.9551C30.6401 48.7631 31.0641 46.7631 31.5441 44.9551C31.6401 44.5551 31.6881 44.2911 31.6881 44.1631C31.6881 44.0351 31.6321 43.9711 31.5201 43.9711C31.4081 43.9711 31.0481 44.5711 30.4401 45.7711C29.8481 46.9551 29.1361 48.4191 28.3041 50.1631C27.4721 51.8911 26.9921 52.8831 26.8641 53.1391C26.7521 53.3791 26.6561 53.5791 26.5761 53.7391C26.5121 53.8831 26.3681 54.1551 26.1441 54.5551C25.9361 54.9391 25.7361 55.2831 25.5441 55.5871C25.0161 56.3871 24.6001 56.7871 24.2961 56.7871C24.0881 56.7871 23.8561 56.7311 23.6001 56.6191C23.3601 56.5071 23.2001 56.3871 23.1201 56.2591C22.9441 55.9871 22.8561 55.1391 22.8561 53.7151C22.8561 50.7391 23.0961 47.8991 23.5761 45.1951C23.7361 44.2991 23.8161 43.8271 23.8161 43.7791C23.8161 43.6191 23.7521 43.5391 23.6241 43.5391C23.3681 43.5391 22.9601 44.3391 22.4001 45.9391L21.7041 47.9311C20.6801 50.8271 19.6401 53.0831 18.5841 54.6991C17.5441 56.3151 16.3441 57.4511 14.9841 58.1071L14.3601 56.7871C15.9121 55.6351 17.1041 54.4591 17.9361 53.2591C18.7841 52.0591 19.7041 50.1231 20.6961 47.4511L21.5121 45.2671C22.0721 43.7471 22.5601 42.6671 22.9761 42.0271C23.3921 41.3711 23.8561 41.0431 24.3681 41.0431C25.2161 41.0431 25.6401 41.5551 25.6401 42.5791C25.6401 42.6591 25.4881 44.2831 25.1841 47.4511C24.8801 50.6031 24.7281 52.6831 24.7281 53.6911C24.7281 53.9791 24.7761 54.1311 24.8721 54.1471C24.9521 54.1471 25.0401 54.0671 25.1361 53.9071C26.4321 51.7471 27.6721 49.3951 28.8561 46.8511C29.0001 46.5311 29.2481 45.9791 29.6001 45.1951C29.9521 44.4111 30.2961 43.7151 30.6321 43.1071C30.9681 42.4991 31.2241 42.1311 31.4001 42.0031C31.5761 41.8591 31.8561 41.7871 32.2401 41.7871C32.6241 41.7871 32.9521 41.9311 33.2241 42.2191C33.5121 42.4911 33.6561 42.8191 33.6561 43.2031C33.6561 43.5871 33.6001 44.0271 33.4881 44.5231C32.2401 50.6191 31.6161 54.2671 31.6161 55.4671C31.6161 56.6511 31.8081 57.4591 32.1921 57.8911C32.5761 58.3391 33.2481 58.6511 34.2081 58.8271ZM39.0955 46.1791C38.1995 46.1791 37.7515 45.8191 37.7515 45.0991C37.7515 44.6991 37.8635 44.3631 38.0875 44.0911C38.3115 43.8191 38.5995 43.6831 38.9515 43.6831C39.3035 43.6831 39.5915 43.7871 39.8155 43.9951C40.0395 44.2031 40.1515 44.4751 40.1515 44.8111C40.1515 45.1471 40.0555 45.4591 39.8635 45.7471C39.6715 46.0351 39.4155 46.1791 39.0955 46.1791ZM38.7835 53.2591L39.2635 53.6671C38.8795 54.4031 38.3675 55.0351 37.7275 55.5631C37.1035 56.0751 36.5355 56.3311 36.0235 56.3311C35.1275 56.3311 34.6795 55.7071 34.6795 54.4591C34.6795 52.9071 35.3195 50.8831 36.5995 48.3871C36.8875 47.8431 37.0555 47.5231 37.1035 47.4271L38.1355 48.0511C37.7995 48.6591 37.3835 49.6271 36.8875 50.9551C36.4075 52.2831 36.1675 53.1391 36.1675 53.5231C36.1675 53.8911 36.2475 54.1551 36.4075 54.3151C36.5675 54.4751 36.7595 54.5551 36.9835 54.5551C37.4155 54.5551 38.0155 54.1231 38.7835 53.2591ZM44.3653 54.0511L44.8693 54.4591C44.3253 55.3071 43.8533 55.9231 43.4533 56.3071C43.0693 56.6751 42.6373 56.8591 42.1573 56.8591C41.6773 56.8591 41.2853 56.6671 40.9813 56.2831C40.6773 55.8991 40.5253 55.4191 40.5253 54.8431C40.5253 53.7231 41.2613 51.3151 42.7333 47.6191C44.2053 43.9071 45.7173 40.6431 47.2693 37.8271L48.3253 38.4031C46.7573 41.4431 45.3413 44.4671 44.0773 47.4751C42.8133 50.4671 42.1813 52.6191 42.1813 53.9311C42.1813 54.6831 42.4613 55.0591 43.0213 55.0591C43.4693 55.0591 43.9173 54.7231 44.3653 54.0511ZM57.433 53.9311L57.985 54.3391C57.761 54.8191 57.345 55.2751 56.737 55.7071C56.145 56.1391 55.601 56.3551 55.105 56.3551C54.161 56.3551 53.689 55.8591 53.689 54.8671C53.689 54.4031 53.809 53.8511 54.049 53.2111L53.161 54.1231C52.297 55.0031 51.545 55.5951 50.905 55.8991C50.281 56.2031 49.665 56.3551 49.057 56.3551C48.449 56.3551 47.985 56.1871 47.665 55.8511C47.361 55.4991 47.209 55.0191 47.209 54.4111C47.209 53.2911 47.641 52.1871 48.505 51.0991C49.369 49.9951 50.473 49.0991 51.817 48.4111C53.161 47.7231 54.505 47.3711 55.849 47.3551L55.897 48.1471L54.889 48.3631C53.433 48.6831 52.145 49.3231 51.025 50.2831C49.921 51.2431 49.369 52.2031 49.369 53.1631C49.369 54.1071 49.753 54.5791 50.521 54.5791C51.241 54.5791 52.129 54.0751 53.185 53.0671C54.241 52.0591 55.121 50.8751 55.825 49.5151L56.833 50.1151C55.841 52.1151 55.345 53.3871 55.345 53.9311C55.345 54.1551 55.417 54.3471 55.561 54.5071C55.721 54.6511 55.873 54.7231 56.017 54.7231C56.177 54.7231 56.281 54.7151 56.329 54.6991C56.377 54.6831 56.425 54.6671 56.473 54.6511C56.521 54.6191 56.577 54.5791 56.641 54.5311C56.721 54.4831 56.785 54.4351 56.833 54.3871C56.897 54.3391 56.993 54.2671 57.121 54.1711C57.249 54.0751 57.353 53.9951 57.433 53.9311ZM68.731 55.4911L68.755 56.0671C68.595 56.1631 67.867 56.4511 66.571 56.9311C66.059 59.9871 65.307 62.1951 64.315 63.5551C63.323 64.9151 62.107 65.5951 60.667 65.5951C59.995 65.5951 59.459 65.3791 59.059 64.9471C58.659 64.5151 58.459 63.9551 58.459 63.2671C58.459 61.8911 59.091 60.6031 60.355 59.4031C61.619 58.2191 63.307 57.2831 65.419 56.5951C65.659 55.5231 66.091 54.0111 66.715 52.0591C65.643 53.6911 64.667 54.7951 63.787 55.3711C62.923 55.9471 62.139 56.2351 61.435 56.2351C60.731 56.2351 60.195 56.0431 59.827 55.6591C59.475 55.2751 59.299 54.7631 59.299 54.1231C59.299 53.0671 59.739 51.9951 60.619 50.9071C61.499 49.8031 62.603 48.9071 63.931 48.2191C65.275 47.5151 66.571 47.1631 67.819 47.1631L68.011 48.0031C66.235 48.1951 64.707 48.8191 63.427 49.8751C62.163 50.9311 61.531 51.9471 61.531 52.9231C61.531 53.3391 61.659 53.6831 61.915 53.9551C62.171 54.2271 62.483 54.3631 62.851 54.3631C63.395 54.3631 64.219 53.7871 65.323 52.6351C66.427 51.4831 67.203 50.4991 67.651 49.6831L68.539 50.1871C67.659 52.5391 67.051 54.5231 66.715 56.1391L68.731 55.4911ZM65.275 57.3151C63.883 57.9551 62.731 58.7231 61.819 59.6191C60.907 60.5151 60.451 61.3311 60.451 62.0671C60.451 62.4511 60.563 62.7631 60.787 63.0031C61.011 63.2431 61.291 63.3631 61.627 63.3631C62.299 63.3631 62.963 62.8911 63.619 61.9471C64.275 61.0031 64.827 59.4591 65.275 57.3151ZM75.8882 47.8591C76.2882 47.8591 76.6162 47.9951 76.8722 48.2671C77.1282 48.5391 77.2562 48.8911 77.2562 49.3231C77.2562 50.1871 76.7602 51.0991 75.7682 52.0591L75.1922 51.6031C75.4162 51.1071 75.5282 50.7471 75.5282 50.5231C75.5282 50.0911 75.2882 49.8751 74.8082 49.8751C74.3282 49.8751 73.8722 50.1791 73.4402 50.7871C73.0082 51.3951 72.4962 52.3391 71.9042 53.6191C71.3282 54.8831 70.8882 55.7791 70.5842 56.3071L69.2162 55.7071C70.0962 53.7071 70.6002 52.5311 70.7282 52.1791C71.1602 50.9311 71.3762 49.3471 71.3762 47.4271L72.7202 47.0671C72.6722 48.1071 72.6002 48.9151 72.5042 49.4911C72.4082 50.0511 72.1762 50.9711 71.8082 52.2511C73.4242 49.3231 74.7842 47.8591 75.8882 47.8591ZM84.5395 49.2271C84.9555 49.9151 85.1635 50.6751 85.1635 51.5071C85.1635 52.8031 84.7155 53.9631 83.8195 54.9871C82.9235 55.9951 81.8675 56.4991 80.6515 56.4991C79.7235 56.4991 78.9955 56.2351 78.4675 55.7071C77.9555 55.1631 77.6995 54.4191 77.6995 53.4751C77.6995 51.9551 78.2915 50.5951 79.4755 49.3951C80.6595 48.1791 81.9875 47.5711 83.4595 47.5711C83.7315 47.5711 83.9235 47.5791 84.0355 47.5951L84.1075 48.3871C82.8275 48.3871 81.7635 48.7551 80.9155 49.4911C80.0675 50.2271 79.6435 51.1711 79.6435 52.3231C79.6435 53.0111 79.8115 53.5711 80.1475 54.0031C80.4835 54.4191 80.9715 54.6271 81.6115 54.6271C82.2675 54.6271 82.7875 54.3391 83.1715 53.7631C83.5555 53.1871 83.7475 52.5151 83.7475 51.7471C83.7475 50.9631 83.5955 50.2511 83.2915 49.6111L84.5395 49.2271Z" fill="white"/>
</svg>
