<svg width="100" height="101" viewBox="0 0 100 101" fill="none" xmlns="http://www.w3.org/2000/svg">
<rect y="0.355133" width="100" height="100" rx="10" fill="#E4ECF7"/>
<path d="M18.46 57.3552H15.9463V47.2741H12.1582V44.7516H22.2393V47.2741H18.46V57.3552ZM30.6064 52.319V49.7966C30.6064 49.4509 30.5391 49.1257 30.4043 48.821C30.2754 48.5104 30.0967 48.2409 29.8682 48.0124C29.6396 47.7839 29.3701 47.6052 29.0596 47.4763C28.7549 47.3415 28.4297 47.2741 28.084 47.2741C27.7383 47.2741 27.4102 47.3415 27.0996 47.4763C26.7949 47.6052 26.5283 47.7839 26.2998 48.0124C26.0713 48.2409 25.8896 48.5104 25.7549 48.821C25.626 49.1257 25.5615 49.4509 25.5615 49.7966V52.319H30.6064ZM33.1289 57.3552H30.6064V54.8327H25.5615V57.3552H23.0479V49.7966C23.0479 49.0993 23.1797 48.446 23.4434 47.8366C23.707 47.2214 24.0645 46.6852 24.5156 46.2282C24.9727 45.7712 25.5059 45.4108 26.1152 45.1472C26.7305 44.8835 27.3867 44.7516 28.084 44.7516C28.7812 44.7516 29.4346 44.8835 30.0439 45.1472C30.6592 45.4108 31.1953 45.7712 31.6523 46.2282C32.1094 46.6852 32.4697 47.2214 32.7334 47.8366C32.9971 48.446 33.1289 49.0993 33.1289 49.7966V57.3552ZM47.8242 57.3552H45.3105V48.3552C45.3105 48.1794 45.2754 48.0153 45.2051 47.863C45.1406 47.7106 45.0498 47.5788 44.9326 47.4675C44.8213 47.3503 44.6895 47.2595 44.5371 47.195C44.3848 47.1306 44.2207 47.0983 44.0449 47.0983C43.8691 47.0983 43.7051 47.1306 43.5527 47.195C43.4004 47.2595 43.2656 47.3503 43.1484 47.4675C43.0371 47.5788 42.9492 47.7106 42.8848 47.863C42.8203 48.0153 42.7881 48.1794 42.7881 48.3552V57.3552H40.2656V48.3552C40.2656 48.1794 40.2334 48.0153 40.1689 47.863C40.1045 47.7106 40.0137 47.5788 39.8965 47.4675C39.7852 47.3503 39.6533 47.2595 39.501 47.195C39.3486 47.1306 39.1846 47.0983 39.0088 47.0983C38.833 47.0983 38.6689 47.1306 38.5166 47.195C38.3643 47.2595 38.2295 47.3503 38.1123 47.4675C38.001 47.5788 37.9131 47.7106 37.8486 47.863C37.7842 48.0153 37.752 48.1794 37.752 48.3552V57.3552H35.2295V48.3552C35.2295 47.8337 35.3262 47.3444 35.5195 46.8874C35.7188 46.4245 35.9883 46.0231 36.3281 45.6833C36.6738 45.3376 37.0752 45.0681 37.5322 44.8747C37.9951 44.6755 38.4873 44.5759 39.0088 44.5759C39.4775 44.5759 39.9287 44.6608 40.3623 44.8307C40.7959 44.9948 41.1855 45.235 41.5312 45.5515C41.877 45.235 42.2637 44.9948 42.6914 44.8307C43.125 44.6608 43.5762 44.5759 44.0449 44.5759C44.5664 44.5759 45.0557 44.6755 45.5127 44.8747C45.9756 45.0681 46.377 45.3376 46.7168 45.6833C47.0625 46.0231 47.332 46.4245 47.5254 46.8874C47.7246 47.3444 47.8242 47.8337 47.8242 48.3552V57.3552ZM57.501 52.319V49.7966C57.501 49.4509 57.4336 49.1257 57.2988 48.821C57.1699 48.5104 56.9912 48.2409 56.7627 48.0124C56.5342 47.7839 56.2646 47.6052 55.9541 47.4763C55.6494 47.3415 55.3242 47.2741 54.9785 47.2741C54.6328 47.2741 54.3047 47.3415 53.9941 47.4763C53.6895 47.6052 53.4229 47.7839 53.1943 48.0124C52.9658 48.2409 52.7842 48.5104 52.6494 48.821C52.5205 49.1257 52.4561 49.4509 52.4561 49.7966V52.319H57.501ZM60.0234 57.3552H57.501V54.8327H52.4561V57.3552H49.9424V49.7966C49.9424 49.0993 50.0742 48.446 50.3379 47.8366C50.6016 47.2214 50.959 46.6852 51.4102 46.2282C51.8672 45.7712 52.4004 45.4108 53.0098 45.1472C53.625 44.8835 54.2812 44.7516 54.9785 44.7516C55.6758 44.7516 56.3291 44.8835 56.9385 45.1472C57.5537 45.4108 58.0898 45.7712 58.5469 46.2282C59.0039 46.6852 59.3643 47.2214 59.6279 47.8366C59.8916 48.446 60.0234 49.0993 60.0234 49.7966V57.3552Z" fill="#2B5CA9"/>
<path d="M73.1973 56.0807C72.6113 56.5787 71.958 56.9625 71.2373 57.2321C70.5166 57.4957 69.7666 57.6276 68.9873 57.6276C68.3896 57.6276 67.8125 57.5485 67.2559 57.3903C66.7051 57.2379 66.1895 57.0211 65.709 56.7399C65.2285 56.4528 64.7891 56.1129 64.3906 55.7203C63.9922 55.3219 63.6523 54.8824 63.3711 54.402C63.0898 53.9156 62.8701 53.3942 62.7119 52.8375C62.5596 52.2809 62.4834 51.7037 62.4834 51.1061C62.4834 50.5084 62.5596 49.9342 62.7119 49.3834C62.8701 48.8326 63.0898 48.317 63.3711 47.8365C63.6523 47.3502 63.9922 46.9108 64.3906 46.5182C64.7891 46.1198 65.2285 45.7799 65.709 45.4987C66.1895 45.2174 66.7051 45.0006 67.2559 44.8483C67.8125 44.6901 68.3896 44.611 68.9873 44.611C69.7666 44.611 70.5166 44.7457 71.2373 45.0153C71.958 45.2789 72.6113 45.6598 73.1973 46.1578L71.8789 48.3551C71.498 47.9684 71.0586 47.6666 70.5605 47.4498C70.0625 47.2272 69.5381 47.1158 68.9873 47.1158C68.4365 47.1158 67.918 47.2213 67.4316 47.4323C66.9512 47.6432 66.5293 47.9303 66.166 48.2936C65.8027 48.651 65.5156 49.0729 65.3047 49.5592C65.0938 50.0397 64.9883 50.5553 64.9883 51.1061C64.9883 51.6627 65.0938 52.1842 65.3047 52.6705C65.5156 53.1569 65.8027 53.5817 66.166 53.9449C66.5293 54.3082 66.9512 54.5953 67.4316 54.8063C67.918 55.0172 68.4365 55.1227 68.9873 55.1227C69.3037 55.1227 69.6113 55.0846 69.9102 55.0084C70.209 54.9323 70.4932 54.8268 70.7627 54.692V51.1061H73.1973V56.0807ZM87.4883 51.1061C87.4883 51.7037 87.4092 52.2809 87.251 52.8375C87.0986 53.3883 86.8818 53.9069 86.6006 54.3932C86.3193 54.8737 85.9795 55.3131 85.5811 55.7115C85.1826 56.11 84.7432 56.4528 84.2627 56.7399C83.7822 57.0211 83.2637 57.2379 82.707 57.3903C82.1504 57.5485 81.5732 57.6276 80.9756 57.6276C80.3779 57.6276 79.8008 57.5485 79.2441 57.3903C78.6934 57.2379 78.1748 57.0211 77.6885 56.7399C77.208 56.4528 76.7686 56.11 76.3701 55.7115C75.9717 55.3131 75.6289 54.8737 75.3418 54.3932C75.0605 53.9069 74.8408 53.3883 74.6826 52.8375C74.5303 52.2809 74.4541 51.7037 74.4541 51.1061C74.4541 50.5084 74.5303 49.9313 74.6826 49.3746C74.8408 48.818 75.0605 48.2994 75.3418 47.819C75.6289 47.3385 75.9717 46.899 76.3701 46.5006C76.7686 46.1022 77.208 45.7623 77.6885 45.4811C78.1748 45.1998 78.6934 44.983 79.2441 44.8307C79.8008 44.6725 80.3779 44.5934 80.9756 44.5934C81.5732 44.5934 82.1504 44.6725 82.707 44.8307C83.2637 44.983 83.7822 45.1998 84.2627 45.4811C84.7432 45.7623 85.1826 46.1022 85.5811 46.5006C85.9795 46.899 86.3193 47.3385 86.6006 47.819C86.8818 48.2994 87.0986 48.818 87.251 49.3746C87.4092 49.9313 87.4883 50.5084 87.4883 51.1061ZM84.9834 51.1061C84.9834 50.5553 84.8779 50.0367 84.667 49.5504C84.4561 49.0582 84.1689 48.6334 83.8057 48.276C83.4482 47.9127 83.0234 47.6256 82.5312 47.4147C82.0449 47.2037 81.5264 47.0983 80.9756 47.0983C80.4189 47.0983 79.8975 47.2037 79.4111 47.4147C78.9248 47.6256 78.5 47.9127 78.1367 48.276C77.7734 48.6334 77.4863 49.0582 77.2754 49.5504C77.0645 50.0367 76.959 50.5553 76.959 51.1061C76.959 51.6569 77.0645 52.1754 77.2754 52.6617C77.4863 53.1422 77.7734 53.5641 78.1367 53.9274C78.5 54.2906 78.9248 54.5778 79.4111 54.7887C79.8975 54.9996 80.4189 55.1051 80.9756 55.1051C81.5264 55.1051 82.0449 54.9996 82.5312 54.7887C83.0234 54.5778 83.4482 54.2906 83.8057 53.9274C84.1689 53.5641 84.4561 53.1422 84.667 52.6617C84.8779 52.1754 84.9834 51.6569 84.9834 51.1061Z" fill="#F4061A"/>
</svg>
